<svg width="181" height="235" viewBox="0 0 181 235" fill="none" xmlns="http://www.w3.org/2000/svg">
<g filter="url(#filter0_d_202_1047)">
<rect x="23" y="19" width="135" height="190" rx="13.073" fill="#D74E30"/>
<rect x="23.3268" y="19.3268" width="134.346" height="189.346" rx="12.7462" stroke="#D2D2D2" stroke-width="0.653649"/>
</g>
<path fill-rule="evenodd" clip-rule="evenodd" d="M68.7833 45.0013C62.7877 45.0986 61.5958 52.3082 61.5958 52.3082C61.5958 52.3082 60.2123 45.0986 54.2168 45.0013C48.2211 44.9038 44.5315 50.457 46.5608 56.3026C48.5901 62.1481 50.612 63.4634 53.798 67.7013C56.9839 71.9394 61.619 79.2708 61.5958 81C61.5729 79.2708 66.016 71.9394 69.2021 67.7013C72.3881 63.4634 74.41 62.1481 76.4392 56.3026C78.4684 50.457 74.7789 44.9038 68.7833 45.0013Z" fill="white"/>
<path fill-rule="evenodd" clip-rule="evenodd" d="M67.783 156.211C73.7794 156.287 77.4683 151.935 75.4392 147.354C73.4102 142.773 71.3874 141.743 68.2023 138.422C65.0156 135.1 60.3818 129.355 60.4037 128C60.4272 129.355 55.9843 135.1 52.7976 138.422C49.6124 141.743 47.5912 142.773 45.5606 147.354C43.5316 151.935 47.222 156.287 53.2168 156.211C57.3328 156.158 59.185 153.48 59.9407 151.805V153.997C59.9407 153.997 58.6266 161.903 49.3527 162.768H47.8744V164H73.1271V162.768H71.6471C62.3749 161.903 61.0592 153.997 61.0592 153.997V152.093C61.9494 153.77 63.8955 156.161 67.783 156.211Z" fill="#1A1919"/>
<path fill-rule="evenodd" clip-rule="evenodd" d="M109 146L124.5 164L140 146L124.5 128L109 146Z" fill="white"/>
<path fill-rule="evenodd" clip-rule="evenodd" d="M132.904 57.1493C131.938 57.1493 131.018 57.3718 130.179 57.7732C130.967 56.4598 131.429 54.8687 131.429 53.1528C131.429 48.6501 128.252 45 124.333 45C120.414 45 117.237 48.6501 117.237 53.1528C117.237 54.7865 117.657 56.3066 118.377 57.5821C117.661 57.303 116.894 57.1493 116.096 57.1493C112.177 57.1493 109 60.7994 109 65.302C109 69.8046 112.177 73.4548 116.096 73.4548C116.981 73.4548 117.828 73.267 118.609 72.9268C118.609 72.9287 121.912 71.9041 124.083 67.3642V70.0977C124.083 70.0977 122.97 78.7141 115.122 79.6572H113.87V81H135.241V79.6572H133.989C126.142 78.7141 125.029 70.0977 125.029 70.0977V67.5482C125.433 68.5712 127.669 73.5733 132.693 73.4491C132.763 73.451 132.833 73.4548 132.904 73.4548C136.823 73.4548 140 69.8046 140 65.302C140 60.7994 136.823 57.1493 132.904 57.1493Z" fill="#1A1919"/>
<defs>
<filter id="filter0_d_202_1047" x="0.77593" y="0.0441756" width="179.448" height="234.448" filterUnits="userSpaceOnUse" color-interpolation-filters="sRGB">
<feFlood flood-opacity="0" result="BackgroundImageFix"/>
<feColorMatrix in="SourceAlpha" type="matrix" values="0 0 0 0 0 0 0 0 0 0 0 0 0 0 0 0 0 0 127 0" result="hardAlpha"/>
<feOffset dy="3.26825"/>
<feGaussianBlur stdDeviation="11.112"/>
<feColorMatrix type="matrix" values="0 0 0 0 0 0 0 0 0 0 0 0 0 0 0 0 0 0 0.1 0"/>
<feBlend mode="normal" in2="BackgroundImageFix" result="effect1_dropShadow_202_1047"/>
<feBlend mode="normal" in="SourceGraphic" in2="effect1_dropShadow_202_1047" result="shape"/>
</filter>
</defs>
</svg>
