<svg width="295" height="360" viewBox="0 0 295 360" fill="none" xmlns="http://www.w3.org/2000/svg">
<g filter="url(#filter0_d_203_443)">
<rect x="86.8252" y="17.0001" width="183.022" height="257.538" rx="13.073" transform="rotate(15 86.8252 17.0001)" fill="#F2F2F2"/>
<rect x="87.0563" y="17.4004" width="182.368" height="256.884" rx="12.7462" transform="rotate(15 87.0563 17.4004)" stroke="#D2D2D2" stroke-width="0.653649"/>
</g>
<path d="M103.091 67.6139L110.053 49.9183L130.178 55.3108L128.586 61.2546L114.306 57.4283L111.349 64.91C113.285 64.4594 115.207 64.4897 117.114 65.0007C120.534 65.9171 122.93 67.6958 124.302 70.3367C125.674 72.9775 125.848 76.2053 124.826 80.0198C124.205 82.3382 123.155 84.2859 121.675 85.8631C120.216 87.4283 118.437 88.476 116.339 89.0064C114.245 89.5203 111.957 89.4447 109.474 88.7794C107.303 88.1979 105.406 87.2225 103.782 85.8532C102.162 84.4675 101.023 82.8318 100.365 80.9462C99.7233 79.0649 99.6429 77.0961 100.123 75.0396L107.177 76.9296C106.924 78.4655 107.129 79.7717 107.792 80.8481C108.477 81.9126 109.542 82.6386 110.989 83.0263C112.6 83.4581 113.996 83.2152 115.176 82.2978C116.36 81.3639 117.236 79.8364 117.804 77.7154C118.351 75.6766 118.268 73.9802 117.556 72.6263C116.843 71.2724 115.567 70.3487 113.725 69.8552C112.032 69.4015 110.54 69.4775 109.249 70.0834L108.387 70.5396L103.091 67.6139Z" fill="#F24822"/>
<path fill-rule="evenodd" clip-rule="evenodd" d="M82.8558 120.891L94.9533 145.58L119.252 132.717L107.155 108.028L82.8558 120.891Z" fill="#F24822"/>
<g clip-path="url(#clip0_203_443)">
<g filter="url(#filter1_d_203_443)">
<rect x="86.8252" y="17.0001" width="183.022" height="257.538" rx="13.073" transform="rotate(15 86.8252 17.0001)" fill="#F2F2F2"/>
<rect x="87.0563" y="17.4004" width="182.368" height="256.884" rx="12.7462" transform="rotate(15 87.0563 17.4004)" stroke="#D2D2D2" stroke-width="0.653649"/>
</g>
<mask id="mask0_203_443" style="mask-type:alpha" maskUnits="userSpaceOnUse" x="32" y="29" width="219" height="272">
<rect x="93.5887" y="29.6397" width="162.759" height="236.621" transform="rotate(15 93.5887 29.6397)" fill="#C4C4C4"/>
</mask>
<g mask="url(#mask0_203_443)">
<path d="M225.148 310.197L57.6002 19.9966" stroke="#2F80ED" stroke-width="287.606" stroke-dasharray="13.07 13.07"/>
</g>
</g>
<g filter="url(#filter2_d_203_443)">
<rect x="86.8252" y="17.0001" width="183.022" height="257.538" rx="13.073" transform="rotate(15 86.8252 17.0001)" fill="#F2F2F2"/>
<rect x="87.0563" y="17.4004" width="182.368" height="256.884" rx="12.7462" transform="rotate(15 87.0563 17.4004)" stroke="#D2D2D2" stroke-width="0.653649"/>
</g>
<path d="M103.091 67.6139L110.053 49.9183L130.178 55.3108L128.586 61.2546L114.306 57.4283L111.349 64.91C113.285 64.4594 115.207 64.4897 117.114 65.0007C120.534 65.9171 122.93 67.6958 124.302 70.3367C125.674 72.9775 125.848 76.2053 124.826 80.0198C124.205 82.3382 123.155 84.2859 121.675 85.8631C120.216 87.4283 118.437 88.476 116.339 89.0064C114.245 89.5203 111.957 89.4447 109.474 88.7794C107.303 88.1979 105.406 87.2225 103.782 85.8532C102.162 84.4675 101.023 82.8318 100.365 80.9462C99.7233 79.0649 99.6429 77.0961 100.123 75.0396L107.177 76.9296C106.924 78.4655 107.129 79.7717 107.792 80.8481C108.477 81.9126 109.542 82.6386 110.989 83.0263C112.6 83.4581 113.996 83.2152 115.176 82.2978C116.36 81.3639 117.236 79.8364 117.804 77.7154C118.351 75.6766 118.268 73.9802 117.556 72.6263C116.843 71.2724 115.567 70.3487 113.725 69.8552C112.032 69.4015 110.54 69.4775 109.249 70.0834L108.387 70.5396L103.091 67.6139Z" fill="#F24822"/>
<path fill-rule="evenodd" clip-rule="evenodd" d="M82.8558 120.891L94.9533 145.58L119.252 132.717L107.155 108.028L82.8558 120.891Z" fill="#F24822"/>
<g filter="url(#filter3_d_203_443)">
<rect x="98.8252" y="41.0001" width="183.022" height="257.538" rx="13.073" transform="rotate(15 98.8252 41.0001)" fill="#F2F2F2"/>
<rect x="99.0563" y="41.4004" width="182.368" height="256.884" rx="12.7462" transform="rotate(15 99.0563 41.4004)" stroke="#D2D2D2" stroke-width="0.653649"/>
</g>
<path d="M115.091 91.6139L122.053 73.9183L142.178 79.3108L140.586 85.2546L126.306 81.4283L123.349 88.91C125.285 88.4594 127.207 88.4897 129.114 89.0007C132.534 89.9171 134.93 91.6958 136.302 94.3367C137.674 96.9775 137.848 100.205 136.826 104.02C136.205 106.338 135.155 108.286 133.675 109.863C132.216 111.428 130.437 112.476 128.339 113.006C126.245 113.52 123.957 113.445 121.474 112.779C119.303 112.198 117.406 111.222 115.782 109.853C114.162 108.467 113.023 106.832 112.365 104.946C111.723 103.065 111.643 101.096 112.123 99.0396L119.177 100.93C118.924 102.466 119.129 103.772 119.792 104.848C120.477 105.913 121.542 106.639 122.989 107.026C124.6 107.458 125.996 107.215 127.176 106.298C128.36 105.364 129.236 103.836 129.804 101.715C130.351 99.6766 130.268 97.9802 129.556 96.6263C128.843 95.2724 127.567 94.3487 125.725 93.8552C124.032 93.4015 122.54 93.4775 121.249 94.0834L120.387 94.5396L115.091 91.6139Z" fill="#F24822"/>
<path fill-rule="evenodd" clip-rule="evenodd" d="M94.8558 144.891L106.953 169.58L131.252 156.717L119.155 132.028L94.8558 144.891Z" fill="#F24822"/>
<g clip-path="url(#clip1_203_443)">
<g filter="url(#filter4_d_203_443)">
<rect x="98.8252" y="41.0001" width="183.022" height="257.538" rx="13.073" transform="rotate(15 98.8252 41.0001)" fill="#F2F2F2"/>
<rect x="99.0563" y="41.4004" width="182.368" height="256.884" rx="12.7462" transform="rotate(15 99.0563 41.4004)" stroke="#D2D2D2" stroke-width="0.653649"/>
</g>
<mask id="mask1_203_443" style="mask-type:alpha" maskUnits="userSpaceOnUse" x="44" y="53" width="219" height="272">
<rect x="105.589" y="53.6397" width="162.759" height="236.621" transform="rotate(15 105.589 53.6397)" fill="#C4C4C4"/>
</mask>
<g mask="url(#mask1_203_443)">
<path d="M237.148 334.197L69.6002 43.9966" stroke="#2F80ED" stroke-width="287.606" stroke-dasharray="13.07 13.07"/>
</g>
</g>
<g filter="url(#filter5_d_203_443)">
<rect x="98.8252" y="41.0001" width="183.022" height="257.538" rx="13.073" transform="rotate(15 98.8252 41.0001)" fill="#F2F2F2"/>
<rect x="99.0563" y="41.4004" width="182.368" height="256.884" rx="12.7462" transform="rotate(15 99.0563 41.4004)" stroke="#D2D2D2" stroke-width="0.653649"/>
</g>
<path d="M115.091 91.6139L122.053 73.9183L142.178 79.3108L140.586 85.2546L126.306 81.4283L123.349 88.91C125.285 88.4594 127.207 88.4897 129.114 89.0007C132.534 89.9171 134.93 91.6958 136.302 94.3367C137.674 96.9775 137.848 100.205 136.826 104.02C136.205 106.338 135.155 108.286 133.675 109.863C132.216 111.428 130.437 112.476 128.339 113.006C126.245 113.52 123.957 113.445 121.474 112.779C119.303 112.198 117.406 111.222 115.782 109.853C114.162 108.467 113.023 106.832 112.365 104.946C111.723 103.065 111.643 101.096 112.123 99.0396L119.177 100.93C118.924 102.466 119.129 103.772 119.792 104.848C120.477 105.913 121.542 106.639 122.989 107.026C124.6 107.458 125.996 107.215 127.176 106.298C128.36 105.364 129.236 103.836 129.804 101.715C130.351 99.6766 130.268 97.9802 129.556 96.6263C128.843 95.2724 127.567 94.3487 125.725 93.8552C124.032 93.4015 122.54 93.4775 121.249 94.0834L120.387 94.5396L115.091 91.6139Z" fill="#F24822"/>
<path fill-rule="evenodd" clip-rule="evenodd" d="M94.8558 144.891L106.953 169.58L131.252 156.717L119.155 132.028L94.8558 144.891Z" fill="#F24822"/>
<defs>
<filter id="filter0_d_203_443" x="0.880304" y="0.979123" width="282.02" height="334.71" filterUnits="userSpaceOnUse" color-interpolation-filters="sRGB">
<feFlood flood-opacity="0" result="BackgroundImageFix"/>
<feColorMatrix in="SourceAlpha" type="matrix" values="0 0 0 0 0 0 0 0 0 0 0 0 0 0 0 0 0 0 127 0" result="hardAlpha"/>
<feOffset dy="3.26824"/>
<feGaussianBlur stdDeviation="11.112"/>
<feColorMatrix type="matrix" values="0 0 0 0 0 0 0 0 0 0 0 0 0 0 0 0 0 0 0.1 0"/>
<feBlend mode="normal" in2="BackgroundImageFix" result="effect1_dropShadow_203_443"/>
<feBlend mode="normal" in="SourceGraphic" in2="effect1_dropShadow_203_443" result="shape"/>
</filter>
<filter id="filter1_d_203_443" x="0.880301" y="0.979127" width="282.02" height="334.71" filterUnits="userSpaceOnUse" color-interpolation-filters="sRGB">
<feFlood flood-opacity="0" result="BackgroundImageFix"/>
<feColorMatrix in="SourceAlpha" type="matrix" values="0 0 0 0 0 0 0 0 0 0 0 0 0 0 0 0 0 0 127 0" result="hardAlpha"/>
<feOffset dy="3.26825"/>
<feGaussianBlur stdDeviation="11.112"/>
<feColorMatrix type="matrix" values="0 0 0 0 0 0 0 0 0 0 0 0 0 0 0 0 0 0 0.1 0"/>
<feBlend mode="normal" in2="BackgroundImageFix" result="effect1_dropShadow_203_443"/>
<feBlend mode="normal" in="SourceGraphic" in2="effect1_dropShadow_203_443" result="shape"/>
</filter>
<filter id="filter2_d_203_443" x="0.880304" y="0.979123" width="282.02" height="334.71" filterUnits="userSpaceOnUse" color-interpolation-filters="sRGB">
<feFlood flood-opacity="0" result="BackgroundImageFix"/>
<feColorMatrix in="SourceAlpha" type="matrix" values="0 0 0 0 0 0 0 0 0 0 0 0 0 0 0 0 0 0 127 0" result="hardAlpha"/>
<feOffset dy="3.26824"/>
<feGaussianBlur stdDeviation="11.112"/>
<feColorMatrix type="matrix" values="0 0 0 0 0 0 0 0 0 0 0 0 0 0 0 0 0 0 0.1 0"/>
<feBlend mode="normal" in2="BackgroundImageFix" result="effect1_dropShadow_203_443"/>
<feBlend mode="normal" in="SourceGraphic" in2="effect1_dropShadow_203_443" result="shape"/>
</filter>
<filter id="filter3_d_203_443" x="12.8803" y="24.9791" width="282.02" height="334.71" filterUnits="userSpaceOnUse" color-interpolation-filters="sRGB">
<feFlood flood-opacity="0" result="BackgroundImageFix"/>
<feColorMatrix in="SourceAlpha" type="matrix" values="0 0 0 0 0 0 0 0 0 0 0 0 0 0 0 0 0 0 127 0" result="hardAlpha"/>
<feOffset dy="3.26824"/>
<feGaussianBlur stdDeviation="11.112"/>
<feColorMatrix type="matrix" values="0 0 0 0 0 0 0 0 0 0 0 0 0 0 0 0 0 0 0.1 0"/>
<feBlend mode="normal" in2="BackgroundImageFix" result="effect1_dropShadow_203_443"/>
<feBlend mode="normal" in="SourceGraphic" in2="effect1_dropShadow_203_443" result="shape"/>
</filter>
<filter id="filter4_d_203_443" x="12.8803" y="24.9791" width="282.02" height="334.71" filterUnits="userSpaceOnUse" color-interpolation-filters="sRGB">
<feFlood flood-opacity="0" result="BackgroundImageFix"/>
<feColorMatrix in="SourceAlpha" type="matrix" values="0 0 0 0 0 0 0 0 0 0 0 0 0 0 0 0 0 0 127 0" result="hardAlpha"/>
<feOffset dy="3.26825"/>
<feGaussianBlur stdDeviation="11.112"/>
<feColorMatrix type="matrix" values="0 0 0 0 0 0 0 0 0 0 0 0 0 0 0 0 0 0 0.1 0"/>
<feBlend mode="normal" in2="BackgroundImageFix" result="effect1_dropShadow_203_443"/>
<feBlend mode="normal" in="SourceGraphic" in2="effect1_dropShadow_203_443" result="shape"/>
</filter>
<filter id="filter5_d_203_443" x="12.8803" y="24.9791" width="282.02" height="334.71" filterUnits="userSpaceOnUse" color-interpolation-filters="sRGB">
<feFlood flood-opacity="0" result="BackgroundImageFix"/>
<feColorMatrix in="SourceAlpha" type="matrix" values="0 0 0 0 0 0 0 0 0 0 0 0 0 0 0 0 0 0 127 0" result="hardAlpha"/>
<feOffset dy="3.26824"/>
<feGaussianBlur stdDeviation="11.112"/>
<feColorMatrix type="matrix" values="0 0 0 0 0 0 0 0 0 0 0 0 0 0 0 0 0 0 0.1 0"/>
<feBlend mode="normal" in2="BackgroundImageFix" result="effect1_dropShadow_203_443"/>
<feBlend mode="normal" in="SourceGraphic" in2="effect1_dropShadow_203_443" result="shape"/>
</filter>
<clipPath id="clip0_203_443">
<rect width="183.022" height="257.538" fill="white" transform="translate(86.8252 17.0001) rotate(15)"/>
</clipPath>
<clipPath id="clip1_203_443">
<rect width="183.022" height="257.538" fill="white" transform="translate(98.8252 41.0001) rotate(15)"/>
</clipPath>
</defs>
</svg>
