<svg width="472" height="435" viewBox="0 0 472 435" fill="none" xmlns="http://www.w3.org/2000/svg">
<g filter="url(#filter0_d_203_444)">
<rect x="275.825" y="69.0001" width="183.022" height="257.538" rx="13.073" transform="rotate(15 275.825 69.0001)" fill="#F2F2F2"/>
<rect x="276.056" y="69.4004" width="182.368" height="256.884" rx="12.7462" transform="rotate(15 276.056 69.4004)" stroke="#D2D2D2" stroke-width="0.653649"/>
</g>
<path d="M292.091 119.614L299.053 101.918L319.178 107.311L317.586 113.255L303.306 109.428L300.349 116.91C302.285 116.459 304.207 116.49 306.114 117.001C309.534 117.917 311.93 119.696 313.302 122.337C314.674 124.978 314.848 128.205 313.826 132.02C313.205 134.338 312.155 136.286 310.675 137.863C309.216 139.428 307.437 140.476 305.339 141.006C303.245 141.52 300.957 141.445 298.474 140.779C296.303 140.198 294.406 139.222 292.782 137.853C291.162 136.467 290.023 134.832 289.365 132.946C288.723 131.065 288.643 129.096 289.123 127.04L296.177 128.93C295.924 130.465 296.129 131.772 296.792 132.848C297.477 133.913 298.542 134.639 299.989 135.026C301.6 135.458 302.996 135.215 304.176 134.298C305.36 133.364 306.236 131.836 306.804 129.715C307.351 127.677 307.268 125.98 306.556 124.626C305.843 123.272 304.567 122.349 302.725 121.855C301.032 121.401 299.54 121.477 298.249 122.083L297.387 122.54L292.091 119.614Z" fill="#F24822"/>
<path fill-rule="evenodd" clip-rule="evenodd" d="M271.856 172.891L283.953 197.58L308.252 184.717L296.155 160.028L271.856 172.891Z" fill="#F24822"/>
<g clip-path="url(#clip0_203_444)">
<g filter="url(#filter1_d_203_444)">
<rect x="275.825" y="69.0001" width="183.022" height="257.538" rx="13.073" transform="rotate(15 275.825 69.0001)" fill="#F2F2F2"/>
<rect x="276.056" y="69.4004" width="182.368" height="256.884" rx="12.7462" transform="rotate(15 276.056 69.4004)" stroke="#D2D2D2" stroke-width="0.653649"/>
</g>
<mask id="mask0_203_444" style="mask-type:alpha" maskUnits="userSpaceOnUse" x="221" y="81" width="219" height="272">
<rect x="282.589" y="81.6397" width="162.759" height="236.621" transform="rotate(15 282.589 81.6397)" fill="#C4C4C4"/>
</mask>
<g mask="url(#mask0_203_444)">
<path d="M414.148 362.197L246.6 71.9966" stroke="#2F80ED" stroke-width="287.606" stroke-dasharray="13.07 13.07"/>
</g>
</g>
<g filter="url(#filter2_d_203_444)">
<rect x="275.825" y="69.0001" width="183.022" height="257.538" rx="13.073" transform="rotate(15 275.825 69.0001)" fill="#F2F2F2"/>
<rect x="276.056" y="69.4004" width="182.368" height="256.884" rx="12.7462" transform="rotate(15 276.056 69.4004)" stroke="#D2D2D2" stroke-width="0.653649"/>
</g>
<path d="M292.091 119.614L299.053 101.918L319.178 107.311L317.586 113.255L303.306 109.428L300.349 116.91C302.285 116.459 304.207 116.49 306.114 117.001C309.534 117.917 311.93 119.696 313.302 122.337C314.674 124.978 314.848 128.205 313.826 132.02C313.205 134.338 312.155 136.286 310.675 137.863C309.216 139.428 307.437 140.476 305.339 141.006C303.245 141.52 300.957 141.445 298.474 140.779C296.303 140.198 294.406 139.222 292.782 137.853C291.162 136.467 290.023 134.832 289.365 132.946C288.723 131.065 288.643 129.096 289.123 127.04L296.177 128.93C295.924 130.465 296.129 131.772 296.792 132.848C297.477 133.913 298.542 134.639 299.989 135.026C301.6 135.458 302.996 135.215 304.176 134.298C305.36 133.364 306.236 131.836 306.804 129.715C307.351 127.677 307.268 125.98 306.556 124.626C305.843 123.272 304.567 122.349 302.725 121.855C301.032 121.401 299.54 121.477 298.249 122.083L297.387 122.54L292.091 119.614Z" fill="#F24822"/>
<path fill-rule="evenodd" clip-rule="evenodd" d="M271.856 172.891L283.953 197.58L308.252 184.717L296.155 160.028L271.856 172.891Z" fill="#F24822"/>
<g filter="url(#filter3_d_203_444)">
<rect x="86.8253" y="116" width="183.022" height="257.538" rx="13.073" transform="rotate(15 86.8253 116)" fill="#F2F2F2"/>
<rect x="87.0564" y="116.4" width="182.368" height="256.884" rx="12.7462" transform="rotate(15 87.0564 116.4)" stroke="#D2D2D2" stroke-width="0.653649"/>
</g>
<path d="M103.091 166.614L110.053 148.918L130.178 154.311L128.586 160.255L114.306 156.428L111.35 163.91C113.285 163.459 115.207 163.49 117.114 164.001C120.534 164.917 122.93 166.696 124.302 169.337C125.674 171.978 125.849 175.205 124.826 179.02C124.205 181.338 123.155 183.286 121.675 184.863C120.216 186.428 118.437 187.476 116.339 188.006C114.245 188.52 111.957 188.445 109.474 187.779C107.304 187.198 105.406 186.222 103.782 184.853C102.162 183.467 101.023 181.832 100.365 179.946C99.7235 178.065 99.643 176.096 100.124 174.04L107.177 175.93C106.924 177.466 107.129 178.772 107.793 179.848C108.477 180.913 109.542 181.639 110.989 182.026C112.6 182.458 113.996 182.215 115.176 181.298C116.36 180.364 117.236 178.836 117.805 176.715C118.351 174.677 118.268 172.98 117.556 171.626C116.844 170.272 115.567 169.349 113.725 168.855C112.032 168.401 110.54 168.478 109.25 169.083L108.387 169.54L103.091 166.614Z" fill="#F24822"/>
<path fill-rule="evenodd" clip-rule="evenodd" d="M82.8558 219.891L94.9533 244.58L119.252 231.717L107.155 207.028L82.8558 219.891Z" fill="#F24822"/>
<g clip-path="url(#clip1_203_444)">
<g filter="url(#filter4_d_203_444)">
<rect x="86.8253" y="116" width="183.022" height="257.538" rx="13.073" transform="rotate(15 86.8253 116)" fill="#F2F2F2"/>
<rect x="87.0564" y="116.4" width="182.368" height="256.884" rx="12.7462" transform="rotate(15 87.0564 116.4)" stroke="#D2D2D2" stroke-width="0.653649"/>
</g>
<mask id="mask1_203_444" style="mask-type:alpha" maskUnits="userSpaceOnUse" x="32" y="128" width="219" height="272">
<rect x="93.5888" y="128.64" width="162.759" height="236.621" transform="rotate(15 93.5888 128.64)" fill="#C4C4C4"/>
</mask>
<g mask="url(#mask1_203_444)">
<path d="M225.148 409.197L57.6003 118.997" stroke="#2F80ED" stroke-width="287.606" stroke-dasharray="13.07 13.07"/>
</g>
</g>
<g filter="url(#filter5_d_203_444)">
<rect x="86.8253" y="116" width="183.022" height="257.538" rx="13.073" transform="rotate(15 86.8253 116)" fill="#F2F2F2"/>
<rect x="87.0564" y="116.4" width="182.368" height="256.884" rx="12.7462" transform="rotate(15 87.0564 116.4)" stroke="#D2D2D2" stroke-width="0.653649"/>
</g>
<path d="M103.091 166.614L110.053 148.918L130.178 154.311L128.586 160.255L114.306 156.428L111.35 163.91C113.285 163.459 115.207 163.49 117.114 164.001C120.534 164.917 122.93 166.696 124.302 169.337C125.674 171.978 125.849 175.205 124.826 179.02C124.205 181.338 123.155 183.286 121.675 184.863C120.216 186.428 118.437 187.476 116.339 188.006C114.245 188.52 111.957 188.445 109.474 187.779C107.304 187.198 105.406 186.222 103.782 184.853C102.162 183.467 101.023 181.832 100.365 179.946C99.7235 178.065 99.643 176.096 100.124 174.04L107.177 175.93C106.924 177.466 107.129 178.772 107.793 179.848C108.477 180.913 109.542 181.639 110.989 182.026C112.6 182.458 113.996 182.215 115.176 181.298C116.36 180.364 117.236 178.836 117.805 176.715C118.351 174.677 118.268 172.98 117.556 171.626C116.844 170.272 115.567 169.349 113.725 168.855C112.032 168.401 110.54 168.478 109.25 169.083L108.387 169.54L103.091 166.614Z" fill="#F24822"/>
<path fill-rule="evenodd" clip-rule="evenodd" d="M82.8558 219.891L94.9533 244.58L119.252 231.717L107.155 207.028L82.8558 219.891Z" fill="#F24822"/>
<g filter="url(#filter6_d_203_444)">
<rect x="155.266" y="294.545" width="183.022" height="257.538" rx="13.073" transform="rotate(-116.711 155.266 294.545)" fill="#F2F2F2"/>
<rect x="155.412" y="294.106" width="182.368" height="256.884" rx="12.7462" transform="rotate(-116.711 155.412 294.106)" stroke="#D2D2D2" stroke-width="0.653649"/>
</g>
<path d="M187.598 218.726L199.052 241.489L194.535 243.761L177.68 238.78C175.326 238.116 173.373 237.736 171.819 237.641C170.258 237.531 168.938 237.748 167.859 238.291C166.384 239.033 165.416 239.987 164.954 241.153C164.478 242.326 164.587 243.605 165.284 244.989C166.033 246.479 167.143 247.397 168.614 247.744C170.061 248.082 171.621 247.831 173.293 246.989L176.622 253.604C174.599 254.622 172.511 255.072 170.356 254.956C168.194 254.824 166.198 254.114 164.367 252.824C162.522 251.543 161.037 249.784 159.912 247.549C158.19 244.128 157.676 241.061 158.37 238.349C159.056 235.622 160.896 233.505 163.892 231.998C165.534 231.171 167.421 230.755 169.552 230.75C171.684 230.745 174.403 231.206 177.709 232.134L189.468 235.678L182.283 221.4L187.598 218.726Z" fill="#050505"/>
<path fill-rule="evenodd" clip-rule="evenodd" d="M217.835 204.702C218.334 205.694 219.026 206.53 219.851 207.196C218.165 207.029 216.377 207.333 214.707 208.174C210.325 210.379 208.415 215.43 210.441 219.456C212.467 223.482 217.661 224.959 222.044 222.753C223.634 221.953 224.896 220.778 225.765 219.413C225.864 220.285 226.11 221.148 226.523 221.968C228.549 225.994 233.744 227.47 238.126 225.265C242.508 223.06 244.418 218.009 242.393 213.983C241.935 213.074 241.315 212.296 240.58 211.66C240.582 211.659 237.877 208.768 232.336 208.761L234.997 207.422C234.997 207.422 243.958 204.346 248.933 211.946L249.58 213.232L250.887 212.575L239.839 190.62L238.533 191.277L239.18 192.564C242.318 201.087 234.508 206.451 234.508 206.451L232.027 207.699C232.813 206.783 236.526 202.036 233.808 196.936C233.773 196.863 233.741 196.789 233.704 196.716C231.678 192.69 226.484 191.214 222.101 193.419C217.719 195.624 215.809 200.676 217.835 204.702Z" fill="#1A1919"/>
<g clip-path="url(#clip2_203_444)">
<g filter="url(#filter7_d_203_444)">
<rect x="155.266" y="294.545" width="183.022" height="257.538" rx="13.073" transform="rotate(-116.711 155.266 294.545)" fill="#F2F2F2"/>
<rect x="155.412" y="294.106" width="182.368" height="256.884" rx="12.7462" transform="rotate(-116.711 155.412 294.106)" stroke="#D2D2D2" stroke-width="0.653649"/>
</g>
<mask id="mask2_203_444" style="mask-type:alpha" maskUnits="userSpaceOnUse" x="87" y="29" width="285" height="253">
<rect x="160.201" y="281.086" width="162.759" height="236.621" transform="rotate(-116.711 160.201 281.086)" fill="#C4C4C4"/>
</mask>
<g mask="url(#mask2_203_444)">
<path d="M282.105 -3.79992L176.949 314.368" stroke="#FB6B6B" stroke-width="287.606" stroke-dasharray="13.07 13.07"/>
</g>
</g>
<defs>
<filter id="filter0_d_203_444" x="189.88" y="52.9791" width="282.02" height="334.71" filterUnits="userSpaceOnUse" color-interpolation-filters="sRGB">
<feFlood flood-opacity="0" result="BackgroundImageFix"/>
<feColorMatrix in="SourceAlpha" type="matrix" values="0 0 0 0 0 0 0 0 0 0 0 0 0 0 0 0 0 0 127 0" result="hardAlpha"/>
<feOffset dy="3.26824"/>
<feGaussianBlur stdDeviation="11.112"/>
<feColorMatrix type="matrix" values="0 0 0 0 0 0 0 0 0 0 0 0 0 0 0 0 0 0 0.1 0"/>
<feBlend mode="normal" in2="BackgroundImageFix" result="effect1_dropShadow_203_444"/>
<feBlend mode="normal" in="SourceGraphic" in2="effect1_dropShadow_203_444" result="shape"/>
</filter>
<filter id="filter1_d_203_444" x="189.88" y="52.9791" width="282.02" height="334.71" filterUnits="userSpaceOnUse" color-interpolation-filters="sRGB">
<feFlood flood-opacity="0" result="BackgroundImageFix"/>
<feColorMatrix in="SourceAlpha" type="matrix" values="0 0 0 0 0 0 0 0 0 0 0 0 0 0 0 0 0 0 127 0" result="hardAlpha"/>
<feOffset dy="3.26825"/>
<feGaussianBlur stdDeviation="11.112"/>
<feColorMatrix type="matrix" values="0 0 0 0 0 0 0 0 0 0 0 0 0 0 0 0 0 0 0.1 0"/>
<feBlend mode="normal" in2="BackgroundImageFix" result="effect1_dropShadow_203_444"/>
<feBlend mode="normal" in="SourceGraphic" in2="effect1_dropShadow_203_444" result="shape"/>
</filter>
<filter id="filter2_d_203_444" x="189.88" y="52.9791" width="282.02" height="334.71" filterUnits="userSpaceOnUse" color-interpolation-filters="sRGB">
<feFlood flood-opacity="0" result="BackgroundImageFix"/>
<feColorMatrix in="SourceAlpha" type="matrix" values="0 0 0 0 0 0 0 0 0 0 0 0 0 0 0 0 0 0 127 0" result="hardAlpha"/>
<feOffset dy="3.26824"/>
<feGaussianBlur stdDeviation="11.112"/>
<feColorMatrix type="matrix" values="0 0 0 0 0 0 0 0 0 0 0 0 0 0 0 0 0 0 0.1 0"/>
<feBlend mode="normal" in2="BackgroundImageFix" result="effect1_dropShadow_203_444"/>
<feBlend mode="normal" in="SourceGraphic" in2="effect1_dropShadow_203_444" result="shape"/>
</filter>
<filter id="filter3_d_203_444" x="0.880365" y="99.9791" width="282.019" height="334.71" filterUnits="userSpaceOnUse" color-interpolation-filters="sRGB">
<feFlood flood-opacity="0" result="BackgroundImageFix"/>
<feColorMatrix in="SourceAlpha" type="matrix" values="0 0 0 0 0 0 0 0 0 0 0 0 0 0 0 0 0 0 127 0" result="hardAlpha"/>
<feOffset dy="3.26824"/>
<feGaussianBlur stdDeviation="11.112"/>
<feColorMatrix type="matrix" values="0 0 0 0 0 0 0 0 0 0 0 0 0 0 0 0 0 0 0.1 0"/>
<feBlend mode="normal" in2="BackgroundImageFix" result="effect1_dropShadow_203_444"/>
<feBlend mode="normal" in="SourceGraphic" in2="effect1_dropShadow_203_444" result="shape"/>
</filter>
<filter id="filter4_d_203_444" x="0.880362" y="99.9791" width="282.019" height="334.71" filterUnits="userSpaceOnUse" color-interpolation-filters="sRGB">
<feFlood flood-opacity="0" result="BackgroundImageFix"/>
<feColorMatrix in="SourceAlpha" type="matrix" values="0 0 0 0 0 0 0 0 0 0 0 0 0 0 0 0 0 0 127 0" result="hardAlpha"/>
<feOffset dy="3.26825"/>
<feGaussianBlur stdDeviation="11.112"/>
<feColorMatrix type="matrix" values="0 0 0 0 0 0 0 0 0 0 0 0 0 0 0 0 0 0 0.1 0"/>
<feBlend mode="normal" in2="BackgroundImageFix" result="effect1_dropShadow_203_444"/>
<feBlend mode="normal" in="SourceGraphic" in2="effect1_dropShadow_203_444" result="shape"/>
</filter>
<filter id="filter5_d_203_444" x="0.880365" y="99.9791" width="282.019" height="334.71" filterUnits="userSpaceOnUse" color-interpolation-filters="sRGB">
<feFlood flood-opacity="0" result="BackgroundImageFix"/>
<feColorMatrix in="SourceAlpha" type="matrix" values="0 0 0 0 0 0 0 0 0 0 0 0 0 0 0 0 0 0 127 0" result="hardAlpha"/>
<feOffset dy="3.26824"/>
<feGaussianBlur stdDeviation="11.112"/>
<feColorMatrix type="matrix" values="0 0 0 0 0 0 0 0 0 0 0 0 0 0 0 0 0 0 0.1 0"/>
<feBlend mode="normal" in2="BackgroundImageFix" result="effect1_dropShadow_203_444"/>
<feBlend mode="normal" in="SourceGraphic" in2="effect1_dropShadow_203_444" result="shape"/>
</filter>
<filter id="filter6_d_203_444" x="55.2542" y="0.816258" width="347.813" height="314.743" filterUnits="userSpaceOnUse" color-interpolation-filters="sRGB">
<feFlood flood-opacity="0" result="BackgroundImageFix"/>
<feColorMatrix in="SourceAlpha" type="matrix" values="0 0 0 0 0 0 0 0 0 0 0 0 0 0 0 0 0 0 127 0" result="hardAlpha"/>
<feOffset dy="3.26824"/>
<feGaussianBlur stdDeviation="11.112"/>
<feColorMatrix type="matrix" values="0 0 0 0 0 0 0 0 0 0 0 0 0 0 0 0 0 0 0.1 0"/>
<feBlend mode="normal" in2="BackgroundImageFix" result="effect1_dropShadow_203_444"/>
<feBlend mode="normal" in="SourceGraphic" in2="effect1_dropShadow_203_444" result="shape"/>
</filter>
<filter id="filter7_d_203_444" x="55.2542" y="0.816232" width="347.813" height="314.743" filterUnits="userSpaceOnUse" color-interpolation-filters="sRGB">
<feFlood flood-opacity="0" result="BackgroundImageFix"/>
<feColorMatrix in="SourceAlpha" type="matrix" values="0 0 0 0 0 0 0 0 0 0 0 0 0 0 0 0 0 0 127 0" result="hardAlpha"/>
<feOffset dy="3.26825"/>
<feGaussianBlur stdDeviation="11.112"/>
<feColorMatrix type="matrix" values="0 0 0 0 0 0 0 0 0 0 0 0 0 0 0 0 0 0 0.1 0"/>
<feBlend mode="normal" in2="BackgroundImageFix" result="effect1_dropShadow_203_444"/>
<feBlend mode="normal" in="SourceGraphic" in2="effect1_dropShadow_203_444" result="shape"/>
</filter>
<clipPath id="clip0_203_444">
<rect width="183.022" height="257.538" fill="white" transform="translate(275.825 69.0001) rotate(15)"/>
</clipPath>
<clipPath id="clip1_203_444">
<rect width="183.022" height="257.538" fill="white" transform="translate(86.8253 116) rotate(15)"/>
</clipPath>
<clipPath id="clip2_203_444">
<rect width="183.022" height="257.538" fill="white" transform="translate(155.266 294.545) rotate(-116.711)"/>
</clipPath>
</defs>
</svg>
