<svg width="1370" height="388" viewBox="0 0 1370 388" fill="none" xmlns="http://www.w3.org/2000/svg">
<g filter="url(#filter0_d_203_442)">
<rect x="118.825" y="16.0001" width="183.022" height="257.538" rx="13.073" transform="rotate(15 118.825 16.0001)" fill="#F2F2F2"/>
<rect x="119.056" y="16.4004" width="182.368" height="256.884" rx="12.7462" transform="rotate(15 119.056 16.4004)" stroke="#D2D2D2" stroke-width="0.653649"/>
</g>
<path d="M135.091 66.6139L142.053 48.9183L162.178 54.3108L160.586 60.2546L146.306 56.4283L143.35 63.91C145.285 63.4594 147.207 63.4897 149.114 64.0007C152.534 64.9171 154.93 66.6957 156.302 69.3366C157.674 71.9775 157.849 75.2053 156.826 79.0198C156.205 81.3382 155.155 83.2859 153.675 84.8631C152.216 86.4282 150.437 87.476 148.339 88.0064C146.245 88.5203 143.957 88.4447 141.474 87.7794C139.304 87.1979 137.406 86.2225 135.782 84.8532C134.162 83.4675 133.023 81.8318 132.365 79.9462C131.723 78.0649 131.643 76.0961 132.124 74.0396L139.177 75.9296C138.924 77.4655 139.129 78.7717 139.793 79.8481C140.477 80.9125 141.542 81.6386 142.989 82.0263C144.6 82.4581 145.996 82.2152 147.176 81.2978C148.36 80.3639 149.236 78.8364 149.805 76.7154C150.351 74.6766 150.268 72.9802 149.556 71.6263C148.844 70.2723 147.567 69.3487 145.725 68.8552C144.032 68.4015 142.54 68.4775 141.25 69.0834L140.387 69.5396L135.091 66.6139Z" fill="#F24822"/>
<path fill-rule="evenodd" clip-rule="evenodd" d="M114.856 119.891L126.953 144.58L151.252 131.717L139.155 107.028L114.856 119.891Z" fill="#F24822"/>
<g clip-path="url(#clip0_203_442)">
<g filter="url(#filter1_d_203_442)">
<rect x="118.825" y="16.0001" width="183.022" height="257.538" rx="13.073" transform="rotate(15 118.825 16.0001)" fill="#F2F2F2"/>
<rect x="119.056" y="16.4004" width="182.368" height="256.884" rx="12.7462" transform="rotate(15 119.056 16.4004)" stroke="#D2D2D2" stroke-width="0.653649"/>
</g>
<mask id="mask0_203_442" style="mask-type:alpha" maskUnits="userSpaceOnUse" x="64" y="28" width="219" height="272">
<rect x="125.589" y="28.6397" width="162.759" height="236.621" transform="rotate(15 125.589 28.6397)" fill="#C4C4C4"/>
</mask>
<g mask="url(#mask0_203_442)">
<path d="M257.148 309.197L89.6003 18.9966" stroke="#2F80ED" stroke-width="287.606" stroke-dasharray="13.07 13.07"/>
</g>
</g>
<g filter="url(#filter2_d_203_442)">
<rect x="118.825" y="16.0001" width="183.022" height="257.538" rx="13.073" transform="rotate(15 118.825 16.0001)" fill="#F2F2F2"/>
<rect x="119.056" y="16.4004" width="182.368" height="256.884" rx="12.7462" transform="rotate(15 119.056 16.4004)" stroke="#D2D2D2" stroke-width="0.653649"/>
</g>
<path d="M135.091 66.6139L142.053 48.9183L162.178 54.3108L160.586 60.2546L146.306 56.4283L143.35 63.91C145.285 63.4594 147.207 63.4897 149.114 64.0007C152.534 64.9171 154.93 66.6957 156.302 69.3366C157.674 71.9775 157.849 75.2053 156.826 79.0198C156.205 81.3382 155.155 83.2859 153.675 84.8631C152.216 86.4282 150.437 87.476 148.339 88.0064C146.245 88.5203 143.957 88.4447 141.474 87.7794C139.304 87.1979 137.406 86.2225 135.782 84.8532C134.162 83.4675 133.023 81.8318 132.365 79.9462C131.723 78.0649 131.643 76.0961 132.124 74.0396L139.177 75.9296C138.924 77.4655 139.129 78.7717 139.793 79.8481C140.477 80.9125 141.542 81.6386 142.989 82.0263C144.6 82.4581 145.996 82.2152 147.176 81.2978C148.36 80.3639 149.236 78.8364 149.805 76.7154C150.351 74.6766 150.268 72.9802 149.556 71.6263C148.844 70.2723 147.567 69.3487 145.725 68.8552C144.032 68.4015 142.54 68.4775 141.25 69.0834L140.387 69.5396L135.091 66.6139Z" fill="#F24822"/>
<path fill-rule="evenodd" clip-rule="evenodd" d="M114.856 119.891L126.953 144.58L151.252 131.717L139.155 107.028L114.856 119.891Z" fill="#F24822"/>
<g filter="url(#filter3_d_203_442)">
<rect x="82.2665" y="298.545" width="183.022" height="257.538" rx="13.073" transform="rotate(-116.711 82.2665 298.545)" fill="#F2F2F2"/>
<rect x="82.4115" y="298.106" width="182.368" height="256.884" rx="12.7462" transform="rotate(-116.711 82.4115 298.106)" stroke="#D2D2D2" stroke-width="0.653649"/>
</g>
<path d="M114.598 222.726L126.052 245.489L121.535 247.761L104.68 242.78C102.326 242.116 100.373 241.736 98.8193 241.641C97.2585 241.531 95.9382 241.748 94.8586 242.291C93.3837 243.033 92.4155 243.987 91.9541 245.153C91.4775 246.326 91.5874 247.605 92.2836 248.989C93.0334 250.479 94.1434 251.397 95.6135 251.744C97.0608 252.082 98.6207 251.831 100.293 250.989L103.622 257.604C101.599 258.622 99.5108 259.072 97.3561 258.956C95.1938 258.824 93.1975 258.114 91.3672 256.824C89.5217 255.543 88.0366 253.784 86.9119 251.549C85.1903 248.128 84.6763 245.061 85.3697 242.349C86.0555 239.622 87.8962 237.505 90.8917 235.998C92.5339 235.171 94.4208 234.755 96.5523 234.75C98.6838 234.745 101.403 235.206 104.709 236.134L116.468 239.678L109.283 225.4L114.598 222.726Z" fill="#050505"/>
<path fill-rule="evenodd" clip-rule="evenodd" d="M144.835 208.702C145.334 209.694 146.026 210.53 146.851 211.196C145.165 211.029 143.377 211.333 141.707 212.174C137.325 214.379 135.415 219.43 137.441 223.456C139.467 227.482 144.661 228.959 149.044 226.753C150.634 225.953 151.896 224.778 152.765 223.413C152.864 224.285 153.11 225.148 153.523 225.968C155.549 229.994 160.744 231.47 165.126 229.265C169.508 227.06 171.418 222.009 169.393 217.983C168.935 217.074 168.315 216.296 167.58 215.66C167.581 215.659 164.877 212.768 159.336 212.761L161.997 211.422C161.997 211.422 170.958 208.346 175.933 215.946L176.58 217.232L177.887 216.575L166.839 194.62L165.533 195.277L166.18 196.564C169.318 205.087 161.508 210.451 161.508 210.451L159.026 211.699C159.813 210.783 163.526 206.036 160.808 200.936C160.773 200.863 160.741 200.789 160.704 200.716C158.678 196.69 153.484 195.214 149.101 197.419C144.719 199.624 142.809 204.676 144.835 208.702Z" fill="#1A1919"/>
<g clip-path="url(#clip1_203_442)">
<g filter="url(#filter4_d_203_442)">
<rect x="82.2665" y="298.545" width="183.022" height="257.538" rx="13.073" transform="rotate(-116.711 82.2665 298.545)" fill="#F2F2F2"/>
<rect x="82.4115" y="298.106" width="182.368" height="256.884" rx="12.7462" transform="rotate(-116.711 82.4115 298.106)" stroke="#D2D2D2" stroke-width="0.653649"/>
</g>
<mask id="mask1_203_442" style="mask-type:alpha" maskUnits="userSpaceOnUse" x="14" y="33" width="285" height="253">
<rect x="87.2015" y="285.086" width="162.759" height="236.621" transform="rotate(-116.711 87.2015 285.086)" fill="#C4C4C4"/>
</mask>
<g mask="url(#mask1_203_442)">
<path d="M209.105 0.200085L103.949 318.368" stroke="#FB6B6B" stroke-width="287.606" stroke-dasharray="13.07 13.07"/>
</g>
</g>
<g filter="url(#filter5_d_203_442)">
<rect x="222.266" y="366.545" width="183.022" height="257.538" rx="13.073" transform="rotate(-116.711 222.266 366.545)" fill="#F2F2F2"/>
<rect x="222.412" y="366.106" width="182.368" height="256.884" rx="12.7462" transform="rotate(-116.711 222.412 366.106)" stroke="#D2D2D2" stroke-width="0.653649"/>
</g>
<path d="M254.598 290.726L266.052 313.488L261.535 315.761L244.68 310.78C242.326 310.116 240.372 309.736 238.819 309.641C237.258 309.531 235.938 309.747 234.859 310.291C233.384 311.033 232.415 311.987 231.954 313.153C231.477 314.326 231.587 315.605 232.284 316.989C233.033 318.479 234.143 319.397 235.613 319.744C237.061 320.082 238.621 319.831 240.293 318.989L243.622 325.604C241.599 326.621 239.511 327.072 237.356 326.956C235.194 326.824 233.197 326.114 231.367 324.824C229.522 323.543 228.037 321.784 226.912 319.549C225.19 316.128 224.676 313.061 225.37 310.349C226.055 307.622 227.896 305.505 230.892 303.998C232.534 303.171 234.421 302.755 236.552 302.75C238.684 302.745 241.403 303.206 244.709 304.134L256.468 307.678L249.283 293.4L254.598 290.726Z" fill="#050505"/>
<path fill-rule="evenodd" clip-rule="evenodd" d="M284.835 276.702C285.334 277.694 286.026 278.53 286.851 279.196C285.165 279.029 283.377 279.333 281.707 280.174C277.325 282.379 275.415 287.43 277.441 291.456C279.467 295.482 284.661 296.958 289.044 294.753C290.634 293.953 291.896 292.778 292.765 291.413C292.864 292.285 293.11 293.148 293.523 293.968C295.549 297.994 300.744 299.47 305.126 297.265C309.508 295.06 311.418 290.009 309.393 285.983C308.935 285.074 308.315 284.296 307.58 283.66C307.582 283.659 304.877 280.768 299.336 280.761L301.997 279.422C301.997 279.422 310.958 276.346 315.933 283.946L316.58 285.232L317.887 284.575L306.839 262.62L305.533 263.277L306.18 264.564C309.318 273.087 301.508 278.451 301.508 278.451L299.027 279.699C299.813 278.783 303.526 274.036 300.808 268.936C300.773 268.863 300.741 268.789 300.704 268.716C298.678 264.69 293.484 263.214 289.101 265.419C284.719 267.624 282.809 272.675 284.835 276.702Z" fill="#1A1919"/>
<g clip-path="url(#clip2_203_442)">
<g filter="url(#filter6_d_203_442)">
<rect x="222.266" y="366.545" width="183.022" height="257.538" rx="13.073" transform="rotate(-116.711 222.266 366.545)" fill="#F2F2F2"/>
<rect x="222.412" y="366.106" width="182.368" height="256.884" rx="12.7462" transform="rotate(-116.711 222.412 366.106)" stroke="#D2D2D2" stroke-width="0.653649"/>
</g>
<mask id="mask2_203_442" style="mask-type:alpha" maskUnits="userSpaceOnUse" x="154" y="101" width="285" height="253">
<rect x="227.201" y="353.086" width="162.759" height="236.621" transform="rotate(-116.711 227.201 353.086)" fill="#C4C4C4"/>
</mask>
<g mask="url(#mask2_203_442)">
<path d="M349.105 68.2L243.949 386.368" stroke="#FB6B6B" stroke-width="287.606" stroke-dasharray="13.07 13.07"/>
</g>
</g>
<g filter="url(#filter7_d_203_442)">
<rect x="431.266" y="355.545" width="183.022" height="257.538" rx="13.073" transform="rotate(-116.711 431.266 355.545)" fill="#F2F2F2"/>
<rect x="431.412" y="355.106" width="182.368" height="256.884" rx="12.7462" transform="rotate(-116.711 431.412 355.106)" stroke="#D2D2D2" stroke-width="0.653649"/>
</g>
<path d="M463.598 279.726L475.052 302.489L470.535 304.761L453.68 299.78C451.326 299.116 449.373 298.736 447.819 298.641C446.258 298.531 444.938 298.748 443.859 299.291C442.384 300.033 441.416 300.987 440.954 302.153C440.478 303.326 440.587 304.605 441.284 305.989C442.033 307.479 443.143 308.397 444.614 308.744C446.061 309.082 447.621 308.831 449.293 307.989L452.622 314.604C450.599 315.622 448.511 316.072 446.356 315.956C444.194 315.824 442.198 315.114 440.367 313.824C438.522 312.543 437.037 310.784 435.912 308.549C434.19 305.128 433.676 302.061 434.37 299.349C435.056 296.622 436.896 294.505 439.892 292.998C441.534 292.171 443.421 291.755 445.552 291.75C447.684 291.745 450.403 292.206 453.709 293.134L465.468 296.678L458.283 282.4L463.598 279.726Z" fill="#050505"/>
<path fill-rule="evenodd" clip-rule="evenodd" d="M493.835 265.702C494.334 266.694 495.026 267.53 495.851 268.196C494.165 268.029 492.377 268.333 490.707 269.174C486.325 271.379 484.415 276.43 486.441 280.456C488.467 284.482 493.661 285.958 498.044 283.753C499.634 282.953 500.896 281.778 501.765 280.413C501.864 281.285 502.11 282.148 502.523 282.968C504.549 286.994 509.744 288.47 514.126 286.265C518.508 284.06 520.418 279.009 518.393 274.983C517.935 274.074 517.315 273.296 516.58 272.66C516.582 272.659 513.877 269.768 508.336 269.761L510.997 268.422C510.997 268.422 519.958 265.346 524.933 272.946L525.58 274.232L526.887 273.575L515.839 251.62L514.533 252.277L515.18 253.564C518.318 262.087 510.508 267.451 510.508 267.451L508.027 268.699C508.813 267.783 512.526 263.036 509.808 257.936C509.773 257.863 509.741 257.789 509.704 257.716C507.678 253.69 502.484 252.214 498.101 254.419C493.719 256.624 491.809 261.676 493.835 265.702Z" fill="#1A1919"/>
<g clip-path="url(#clip3_203_442)">
<g filter="url(#filter8_d_203_442)">
<rect x="431.266" y="355.545" width="183.022" height="257.538" rx="13.073" transform="rotate(-116.711 431.266 355.545)" fill="#F2F2F2"/>
<rect x="431.412" y="355.106" width="182.368" height="256.884" rx="12.7462" transform="rotate(-116.711 431.412 355.106)" stroke="#D2D2D2" stroke-width="0.653649"/>
</g>
<mask id="mask3_203_442" style="mask-type:alpha" maskUnits="userSpaceOnUse" x="363" y="90" width="285" height="253">
<rect x="436.201" y="342.086" width="162.759" height="236.621" transform="rotate(-116.711 436.201 342.086)" fill="#C4C4C4"/>
</mask>
<g mask="url(#mask3_203_442)">
<path d="M558.105 57.2001L452.949 375.368" stroke="#FB6B6B" stroke-width="287.606" stroke-dasharray="13.07 13.07"/>
</g>
</g>
<g filter="url(#filter9_d_203_442)">
<rect x="661.266" y="352.545" width="183.022" height="257.538" rx="13.073" transform="rotate(-116.711 661.266 352.545)" fill="#F2F2F2"/>
<rect x="661.412" y="352.106" width="182.368" height="256.884" rx="12.7462" transform="rotate(-116.711 661.412 352.106)" stroke="#D2D2D2" stroke-width="0.653649"/>
</g>
<path d="M693.598 276.726L705.052 299.489L700.535 301.761L683.68 296.78C681.326 296.116 679.373 295.736 677.819 295.641C676.258 295.531 674.938 295.748 673.859 296.291C672.384 297.033 671.416 297.987 670.954 299.153C670.478 300.326 670.587 301.605 671.284 302.989C672.033 304.479 673.143 305.397 674.614 305.744C676.061 306.082 677.621 305.831 679.293 304.989L682.622 311.604C680.599 312.622 678.511 313.072 676.356 312.956C674.194 312.824 672.198 312.114 670.367 310.824C668.522 309.543 667.037 307.784 665.912 305.549C664.19 302.128 663.676 299.061 664.37 296.349C665.056 293.622 666.896 291.505 669.892 289.998C671.534 289.171 673.421 288.755 675.552 288.75C677.684 288.745 680.403 289.206 683.709 290.134L695.468 293.678L688.283 279.4L693.598 276.726Z" fill="#050505"/>
<path fill-rule="evenodd" clip-rule="evenodd" d="M723.835 262.702C724.334 263.694 725.026 264.53 725.851 265.196C724.165 265.029 722.377 265.333 720.707 266.174C716.325 268.379 714.415 273.43 716.441 277.456C718.467 281.482 723.661 282.958 728.044 280.753C729.634 279.953 730.896 278.778 731.765 277.413C731.864 278.285 732.11 279.148 732.523 279.968C734.549 283.994 739.744 285.47 744.126 283.265C748.508 281.06 750.418 276.009 748.393 271.983C747.935 271.074 747.315 270.296 746.58 269.66C746.582 269.659 743.877 266.768 738.336 266.761L740.997 265.422C740.997 265.422 749.958 262.346 754.933 269.946L755.58 271.232L756.887 270.575L745.839 248.62L744.533 249.277L745.18 250.564C748.318 259.087 740.508 264.451 740.508 264.451L738.027 265.699C738.813 264.783 742.526 260.036 739.808 254.936C739.773 254.863 739.741 254.789 739.704 254.716C737.678 250.69 732.484 249.214 728.101 251.419C723.719 253.624 721.809 258.676 723.835 262.702Z" fill="#1A1919"/>
<g clip-path="url(#clip4_203_442)">
<g filter="url(#filter10_d_203_442)">
<rect x="661.266" y="352.545" width="183.022" height="257.538" rx="13.073" transform="rotate(-116.711 661.266 352.545)" fill="#F2F2F2"/>
<rect x="661.412" y="352.106" width="182.368" height="256.884" rx="12.7462" transform="rotate(-116.711 661.412 352.106)" stroke="#D2D2D2" stroke-width="0.653649"/>
</g>
<mask id="mask4_203_442" style="mask-type:alpha" maskUnits="userSpaceOnUse" x="593" y="87" width="285" height="253">
<rect x="666.201" y="339.086" width="162.759" height="236.621" transform="rotate(-116.711 666.201 339.086)" fill="#C4C4C4"/>
</mask>
<g mask="url(#mask4_203_442)">
<path d="M788.105 54.2001L682.949 372.368" stroke="#FB6B6B" stroke-width="287.606" stroke-dasharray="13.07 13.07"/>
</g>
</g>
<g filter="url(#filter11_d_203_442)">
<rect x="891.266" y="349.545" width="183.022" height="257.538" rx="13.073" transform="rotate(-116.711 891.266 349.545)" fill="#F2F2F2"/>
<rect x="891.412" y="349.106" width="182.368" height="256.884" rx="12.7462" transform="rotate(-116.711 891.412 349.106)" stroke="#D2D2D2" stroke-width="0.653649"/>
</g>
<path d="M923.598 273.726L935.052 296.489L930.535 298.761L913.68 293.78C911.326 293.116 909.373 292.736 907.819 292.641C906.258 292.531 904.938 292.748 903.859 293.291C902.384 294.033 901.416 294.987 900.954 296.153C900.478 297.326 900.587 298.605 901.284 299.989C902.033 301.479 903.143 302.397 904.614 302.744C906.061 303.082 907.621 302.831 909.293 301.989L912.622 308.604C910.599 309.622 908.511 310.072 906.356 309.956C904.194 309.824 902.198 309.114 900.367 307.824C898.522 306.543 897.037 304.784 895.912 302.549C894.19 299.128 893.676 296.061 894.37 293.349C895.056 290.622 896.896 288.505 899.892 286.998C901.534 286.171 903.421 285.755 905.552 285.75C907.684 285.745 910.403 286.206 913.709 287.134L925.468 290.678L918.283 276.4L923.598 273.726Z" fill="#050505"/>
<path fill-rule="evenodd" clip-rule="evenodd" d="M953.835 259.702C954.334 260.694 955.026 261.53 955.851 262.196C954.165 262.029 952.377 262.333 950.707 263.174C946.325 265.379 944.415 270.43 946.441 274.456C948.467 278.482 953.661 279.958 958.044 277.753C959.634 276.953 960.896 275.778 961.765 274.413C961.864 275.285 962.11 276.148 962.523 276.968C964.549 280.994 969.744 282.47 974.126 280.265C978.508 278.06 980.418 273.009 978.393 268.983C977.935 268.074 977.315 267.296 976.58 266.66C976.582 266.659 973.877 263.768 968.336 263.761L970.997 262.422C970.997 262.422 979.958 259.346 984.933 266.946L985.58 268.232L986.887 267.575L975.839 245.62L974.533 246.277L975.18 247.564C978.318 256.087 970.508 261.451 970.508 261.451L968.027 262.699C968.813 261.783 972.526 257.036 969.808 251.936C969.773 251.863 969.741 251.789 969.704 251.716C967.678 247.69 962.484 246.214 958.101 248.419C953.719 250.624 951.809 255.676 953.835 259.702Z" fill="#1A1919"/>
<g clip-path="url(#clip5_203_442)">
<g filter="url(#filter12_d_203_442)">
<rect x="891.266" y="349.545" width="183.022" height="257.538" rx="13.073" transform="rotate(-116.711 891.266 349.545)" fill="#F2F2F2"/>
<rect x="891.412" y="349.106" width="182.368" height="256.884" rx="12.7462" transform="rotate(-116.711 891.412 349.106)" stroke="#D2D2D2" stroke-width="0.653649"/>
</g>
<mask id="mask5_203_442" style="mask-type:alpha" maskUnits="userSpaceOnUse" x="823" y="84" width="285" height="253">
<rect x="896.201" y="336.086" width="162.759" height="236.621" transform="rotate(-116.711 896.201 336.086)" fill="#C4C4C4"/>
</mask>
<g mask="url(#mask5_203_442)">
<path d="M1018.1 51.2001L912.949 369.368" stroke="#FB6B6B" stroke-width="287.606" stroke-dasharray="13.07 13.07"/>
</g>
</g>
<g filter="url(#filter13_d_203_442)">
<rect x="1121.27" y="346.545" width="183.022" height="257.538" rx="13.073" transform="rotate(-116.711 1121.27 346.545)" fill="#F2F2F2"/>
<rect x="1121.41" y="346.106" width="182.368" height="256.884" rx="12.7462" transform="rotate(-116.711 1121.41 346.106)" stroke="#D2D2D2" stroke-width="0.653649"/>
</g>
<path d="M1153.6 270.726L1165.05 293.489L1160.54 295.761L1143.68 290.78C1141.33 290.116 1139.37 289.736 1137.82 289.641C1136.26 289.531 1134.94 289.748 1133.86 290.291C1132.38 291.033 1131.42 291.987 1130.95 293.153C1130.48 294.326 1130.59 295.605 1131.28 296.989C1132.03 298.479 1133.14 299.397 1134.61 299.744C1136.06 300.082 1137.62 299.831 1139.29 298.989L1142.62 305.604C1140.6 306.622 1138.51 307.072 1136.36 306.956C1134.19 306.824 1132.2 306.114 1130.37 304.824C1128.52 303.543 1127.04 301.784 1125.91 299.549C1124.19 296.128 1123.68 293.061 1124.37 290.349C1125.06 287.622 1126.9 285.505 1129.89 283.998C1131.53 283.171 1133.42 282.755 1135.55 282.75C1137.68 282.745 1140.4 283.206 1143.71 284.134L1155.47 287.678L1148.28 273.4L1153.6 270.726Z" fill="#050505"/>
<path fill-rule="evenodd" clip-rule="evenodd" d="M1183.83 256.702C1184.33 257.694 1185.03 258.53 1185.85 259.196C1184.17 259.029 1182.38 259.333 1180.71 260.174C1176.33 262.379 1174.41 267.43 1176.44 271.456C1178.47 275.482 1183.66 276.958 1188.04 274.753C1189.63 273.953 1190.9 272.778 1191.77 271.413C1191.86 272.285 1192.11 273.148 1192.52 273.968C1194.55 277.994 1199.74 279.47 1204.13 277.265C1208.51 275.06 1210.42 270.009 1208.39 265.983C1207.94 265.074 1207.31 264.296 1206.58 263.66C1206.58 263.659 1203.88 260.768 1198.34 260.761L1201 259.422C1201 259.422 1209.96 256.346 1214.93 263.946L1215.58 265.232L1216.89 264.575L1205.84 242.62L1204.53 243.277L1205.18 244.564C1208.32 253.087 1200.51 258.451 1200.51 258.451L1198.03 259.699C1198.81 258.783 1202.53 254.036 1199.81 248.936C1199.77 248.863 1199.74 248.789 1199.7 248.716C1197.68 244.69 1192.48 243.214 1188.1 245.419C1183.72 247.624 1181.81 252.676 1183.83 256.702Z" fill="#1A1919"/>
<g clip-path="url(#clip6_203_442)">
<g filter="url(#filter14_d_203_442)">
<rect x="1121.27" y="346.545" width="183.022" height="257.538" rx="13.073" transform="rotate(-116.711 1121.27 346.545)" fill="#F2F2F2"/>
<rect x="1121.41" y="346.106" width="182.368" height="256.884" rx="12.7462" transform="rotate(-116.711 1121.41 346.106)" stroke="#D2D2D2" stroke-width="0.653649"/>
</g>
<mask id="mask6_203_442" style="mask-type:alpha" maskUnits="userSpaceOnUse" x="1053" y="81" width="285" height="253">
<rect x="1126.2" y="333.086" width="162.759" height="236.621" transform="rotate(-116.711 1126.2 333.086)" fill="#C4C4C4"/>
</mask>
<g mask="url(#mask6_203_442)">
<path d="M1248.1 48.2001L1142.95 366.368" stroke="#FB6B6B" stroke-width="287.606" stroke-dasharray="13.07 13.07"/>
</g>
</g>
<defs>
<filter id="filter0_d_203_442" x="32.8804" y="-0.0208845" width="282.019" height="334.71" filterUnits="userSpaceOnUse" color-interpolation-filters="sRGB">
<feFlood flood-opacity="0" result="BackgroundImageFix"/>
<feColorMatrix in="SourceAlpha" type="matrix" values="0 0 0 0 0 0 0 0 0 0 0 0 0 0 0 0 0 0 127 0" result="hardAlpha"/>
<feOffset dy="3.26824"/>
<feGaussianBlur stdDeviation="11.112"/>
<feColorMatrix type="matrix" values="0 0 0 0 0 0 0 0 0 0 0 0 0 0 0 0 0 0 0.1 0"/>
<feBlend mode="normal" in2="BackgroundImageFix" result="effect1_dropShadow_203_442"/>
<feBlend mode="normal" in="SourceGraphic" in2="effect1_dropShadow_203_442" result="shape"/>
</filter>
<filter id="filter1_d_203_442" x="32.8804" y="-0.0208879" width="282.019" height="334.71" filterUnits="userSpaceOnUse" color-interpolation-filters="sRGB">
<feFlood flood-opacity="0" result="BackgroundImageFix"/>
<feColorMatrix in="SourceAlpha" type="matrix" values="0 0 0 0 0 0 0 0 0 0 0 0 0 0 0 0 0 0 127 0" result="hardAlpha"/>
<feOffset dy="3.26825"/>
<feGaussianBlur stdDeviation="11.112"/>
<feColorMatrix type="matrix" values="0 0 0 0 0 0 0 0 0 0 0 0 0 0 0 0 0 0 0.1 0"/>
<feBlend mode="normal" in2="BackgroundImageFix" result="effect1_dropShadow_203_442"/>
<feBlend mode="normal" in="SourceGraphic" in2="effect1_dropShadow_203_442" result="shape"/>
</filter>
<filter id="filter2_d_203_442" x="32.8804" y="-0.0208845" width="282.019" height="334.71" filterUnits="userSpaceOnUse" color-interpolation-filters="sRGB">
<feFlood flood-opacity="0" result="BackgroundImageFix"/>
<feColorMatrix in="SourceAlpha" type="matrix" values="0 0 0 0 0 0 0 0 0 0 0 0 0 0 0 0 0 0 127 0" result="hardAlpha"/>
<feOffset dy="3.26824"/>
<feGaussianBlur stdDeviation="11.112"/>
<feColorMatrix type="matrix" values="0 0 0 0 0 0 0 0 0 0 0 0 0 0 0 0 0 0 0.1 0"/>
<feBlend mode="normal" in2="BackgroundImageFix" result="effect1_dropShadow_203_442"/>
<feBlend mode="normal" in="SourceGraphic" in2="effect1_dropShadow_203_442" result="shape"/>
</filter>
<filter id="filter3_d_203_442" x="-17.7458" y="4.81627" width="347.813" height="314.743" filterUnits="userSpaceOnUse" color-interpolation-filters="sRGB">
<feFlood flood-opacity="0" result="BackgroundImageFix"/>
<feColorMatrix in="SourceAlpha" type="matrix" values="0 0 0 0 0 0 0 0 0 0 0 0 0 0 0 0 0 0 127 0" result="hardAlpha"/>
<feOffset dy="3.26824"/>
<feGaussianBlur stdDeviation="11.112"/>
<feColorMatrix type="matrix" values="0 0 0 0 0 0 0 0 0 0 0 0 0 0 0 0 0 0 0.1 0"/>
<feBlend mode="normal" in2="BackgroundImageFix" result="effect1_dropShadow_203_442"/>
<feBlend mode="normal" in="SourceGraphic" in2="effect1_dropShadow_203_442" result="shape"/>
</filter>
<filter id="filter4_d_203_442" x="-17.7458" y="4.81624" width="347.813" height="314.743" filterUnits="userSpaceOnUse" color-interpolation-filters="sRGB">
<feFlood flood-opacity="0" result="BackgroundImageFix"/>
<feColorMatrix in="SourceAlpha" type="matrix" values="0 0 0 0 0 0 0 0 0 0 0 0 0 0 0 0 0 0 127 0" result="hardAlpha"/>
<feOffset dy="3.26825"/>
<feGaussianBlur stdDeviation="11.112"/>
<feColorMatrix type="matrix" values="0 0 0 0 0 0 0 0 0 0 0 0 0 0 0 0 0 0 0.1 0"/>
<feBlend mode="normal" in2="BackgroundImageFix" result="effect1_dropShadow_203_442"/>
<feBlend mode="normal" in="SourceGraphic" in2="effect1_dropShadow_203_442" result="shape"/>
</filter>
<filter id="filter5_d_203_442" x="122.254" y="72.8162" width="347.813" height="314.743" filterUnits="userSpaceOnUse" color-interpolation-filters="sRGB">
<feFlood flood-opacity="0" result="BackgroundImageFix"/>
<feColorMatrix in="SourceAlpha" type="matrix" values="0 0 0 0 0 0 0 0 0 0 0 0 0 0 0 0 0 0 127 0" result="hardAlpha"/>
<feOffset dy="3.26824"/>
<feGaussianBlur stdDeviation="11.112"/>
<feColorMatrix type="matrix" values="0 0 0 0 0 0 0 0 0 0 0 0 0 0 0 0 0 0 0.1 0"/>
<feBlend mode="normal" in2="BackgroundImageFix" result="effect1_dropShadow_203_442"/>
<feBlend mode="normal" in="SourceGraphic" in2="effect1_dropShadow_203_442" result="shape"/>
</filter>
<filter id="filter6_d_203_442" x="122.254" y="72.8162" width="347.813" height="314.743" filterUnits="userSpaceOnUse" color-interpolation-filters="sRGB">
<feFlood flood-opacity="0" result="BackgroundImageFix"/>
<feColorMatrix in="SourceAlpha" type="matrix" values="0 0 0 0 0 0 0 0 0 0 0 0 0 0 0 0 0 0 127 0" result="hardAlpha"/>
<feOffset dy="3.26825"/>
<feGaussianBlur stdDeviation="11.112"/>
<feColorMatrix type="matrix" values="0 0 0 0 0 0 0 0 0 0 0 0 0 0 0 0 0 0 0.1 0"/>
<feBlend mode="normal" in2="BackgroundImageFix" result="effect1_dropShadow_203_442"/>
<feBlend mode="normal" in="SourceGraphic" in2="effect1_dropShadow_203_442" result="shape"/>
</filter>
<filter id="filter7_d_203_442" x="331.254" y="61.8163" width="347.813" height="314.743" filterUnits="userSpaceOnUse" color-interpolation-filters="sRGB">
<feFlood flood-opacity="0" result="BackgroundImageFix"/>
<feColorMatrix in="SourceAlpha" type="matrix" values="0 0 0 0 0 0 0 0 0 0 0 0 0 0 0 0 0 0 127 0" result="hardAlpha"/>
<feOffset dy="3.26824"/>
<feGaussianBlur stdDeviation="11.112"/>
<feColorMatrix type="matrix" values="0 0 0 0 0 0 0 0 0 0 0 0 0 0 0 0 0 0 0.1 0"/>
<feBlend mode="normal" in2="BackgroundImageFix" result="effect1_dropShadow_203_442"/>
<feBlend mode="normal" in="SourceGraphic" in2="effect1_dropShadow_203_442" result="shape"/>
</filter>
<filter id="filter8_d_203_442" x="331.254" y="61.8162" width="347.813" height="314.743" filterUnits="userSpaceOnUse" color-interpolation-filters="sRGB">
<feFlood flood-opacity="0" result="BackgroundImageFix"/>
<feColorMatrix in="SourceAlpha" type="matrix" values="0 0 0 0 0 0 0 0 0 0 0 0 0 0 0 0 0 0 127 0" result="hardAlpha"/>
<feOffset dy="3.26825"/>
<feGaussianBlur stdDeviation="11.112"/>
<feColorMatrix type="matrix" values="0 0 0 0 0 0 0 0 0 0 0 0 0 0 0 0 0 0 0.1 0"/>
<feBlend mode="normal" in2="BackgroundImageFix" result="effect1_dropShadow_203_442"/>
<feBlend mode="normal" in="SourceGraphic" in2="effect1_dropShadow_203_442" result="shape"/>
</filter>
<filter id="filter9_d_203_442" x="561.254" y="58.8163" width="347.813" height="314.743" filterUnits="userSpaceOnUse" color-interpolation-filters="sRGB">
<feFlood flood-opacity="0" result="BackgroundImageFix"/>
<feColorMatrix in="SourceAlpha" type="matrix" values="0 0 0 0 0 0 0 0 0 0 0 0 0 0 0 0 0 0 127 0" result="hardAlpha"/>
<feOffset dy="3.26824"/>
<feGaussianBlur stdDeviation="11.112"/>
<feColorMatrix type="matrix" values="0 0 0 0 0 0 0 0 0 0 0 0 0 0 0 0 0 0 0.1 0"/>
<feBlend mode="normal" in2="BackgroundImageFix" result="effect1_dropShadow_203_442"/>
<feBlend mode="normal" in="SourceGraphic" in2="effect1_dropShadow_203_442" result="shape"/>
</filter>
<filter id="filter10_d_203_442" x="561.254" y="58.8162" width="347.813" height="314.743" filterUnits="userSpaceOnUse" color-interpolation-filters="sRGB">
<feFlood flood-opacity="0" result="BackgroundImageFix"/>
<feColorMatrix in="SourceAlpha" type="matrix" values="0 0 0 0 0 0 0 0 0 0 0 0 0 0 0 0 0 0 127 0" result="hardAlpha"/>
<feOffset dy="3.26825"/>
<feGaussianBlur stdDeviation="11.112"/>
<feColorMatrix type="matrix" values="0 0 0 0 0 0 0 0 0 0 0 0 0 0 0 0 0 0 0.1 0"/>
<feBlend mode="normal" in2="BackgroundImageFix" result="effect1_dropShadow_203_442"/>
<feBlend mode="normal" in="SourceGraphic" in2="effect1_dropShadow_203_442" result="shape"/>
</filter>
<filter id="filter11_d_203_442" x="791.254" y="55.8163" width="347.813" height="314.743" filterUnits="userSpaceOnUse" color-interpolation-filters="sRGB">
<feFlood flood-opacity="0" result="BackgroundImageFix"/>
<feColorMatrix in="SourceAlpha" type="matrix" values="0 0 0 0 0 0 0 0 0 0 0 0 0 0 0 0 0 0 127 0" result="hardAlpha"/>
<feOffset dy="3.26824"/>
<feGaussianBlur stdDeviation="11.112"/>
<feColorMatrix type="matrix" values="0 0 0 0 0 0 0 0 0 0 0 0 0 0 0 0 0 0 0.1 0"/>
<feBlend mode="normal" in2="BackgroundImageFix" result="effect1_dropShadow_203_442"/>
<feBlend mode="normal" in="SourceGraphic" in2="effect1_dropShadow_203_442" result="shape"/>
</filter>
<filter id="filter12_d_203_442" x="791.254" y="55.8162" width="347.813" height="314.743" filterUnits="userSpaceOnUse" color-interpolation-filters="sRGB">
<feFlood flood-opacity="0" result="BackgroundImageFix"/>
<feColorMatrix in="SourceAlpha" type="matrix" values="0 0 0 0 0 0 0 0 0 0 0 0 0 0 0 0 0 0 127 0" result="hardAlpha"/>
<feOffset dy="3.26825"/>
<feGaussianBlur stdDeviation="11.112"/>
<feColorMatrix type="matrix" values="0 0 0 0 0 0 0 0 0 0 0 0 0 0 0 0 0 0 0.1 0"/>
<feBlend mode="normal" in2="BackgroundImageFix" result="effect1_dropShadow_203_442"/>
<feBlend mode="normal" in="SourceGraphic" in2="effect1_dropShadow_203_442" result="shape"/>
</filter>
<filter id="filter13_d_203_442" x="1021.25" y="52.8163" width="347.813" height="314.743" filterUnits="userSpaceOnUse" color-interpolation-filters="sRGB">
<feFlood flood-opacity="0" result="BackgroundImageFix"/>
<feColorMatrix in="SourceAlpha" type="matrix" values="0 0 0 0 0 0 0 0 0 0 0 0 0 0 0 0 0 0 127 0" result="hardAlpha"/>
<feOffset dy="3.26824"/>
<feGaussianBlur stdDeviation="11.112"/>
<feColorMatrix type="matrix" values="0 0 0 0 0 0 0 0 0 0 0 0 0 0 0 0 0 0 0.1 0"/>
<feBlend mode="normal" in2="BackgroundImageFix" result="effect1_dropShadow_203_442"/>
<feBlend mode="normal" in="SourceGraphic" in2="effect1_dropShadow_203_442" result="shape"/>
</filter>
<filter id="filter14_d_203_442" x="1021.25" y="52.8162" width="347.813" height="314.743" filterUnits="userSpaceOnUse" color-interpolation-filters="sRGB">
<feFlood flood-opacity="0" result="BackgroundImageFix"/>
<feColorMatrix in="SourceAlpha" type="matrix" values="0 0 0 0 0 0 0 0 0 0 0 0 0 0 0 0 0 0 127 0" result="hardAlpha"/>
<feOffset dy="3.26825"/>
<feGaussianBlur stdDeviation="11.112"/>
<feColorMatrix type="matrix" values="0 0 0 0 0 0 0 0 0 0 0 0 0 0 0 0 0 0 0.1 0"/>
<feBlend mode="normal" in2="BackgroundImageFix" result="effect1_dropShadow_203_442"/>
<feBlend mode="normal" in="SourceGraphic" in2="effect1_dropShadow_203_442" result="shape"/>
</filter>
<clipPath id="clip0_203_442">
<rect width="183.022" height="257.538" fill="white" transform="translate(118.825 16.0001) rotate(15)"/>
</clipPath>
<clipPath id="clip1_203_442">
<rect width="183.022" height="257.538" fill="white" transform="translate(82.2665 298.545) rotate(-116.711)"/>
</clipPath>
<clipPath id="clip2_203_442">
<rect width="183.022" height="257.538" fill="white" transform="translate(222.266 366.545) rotate(-116.711)"/>
</clipPath>
<clipPath id="clip3_203_442">
<rect width="183.022" height="257.538" fill="white" transform="translate(431.266 355.545) rotate(-116.711)"/>
</clipPath>
<clipPath id="clip4_203_442">
<rect width="183.022" height="257.538" fill="white" transform="translate(661.266 352.545) rotate(-116.711)"/>
</clipPath>
<clipPath id="clip5_203_442">
<rect width="183.022" height="257.538" fill="white" transform="translate(891.266 349.545) rotate(-116.711)"/>
</clipPath>
<clipPath id="clip6_203_442">
<rect width="183.022" height="257.538" fill="white" transform="translate(1121.27 346.545) rotate(-116.711)"/>
</clipPath>
</defs>
</svg>
