<svg width="181" height="235" viewBox="0 0 181 235" fill="none" xmlns="http://www.w3.org/2000/svg">
<g filter="url(#filter0_d_202_1047)">
<rect x="23" y="19" width="135" height="190" rx="13.073" fill="#D74E30"/>
<rect x="23.3268" y="19.3268" width="134.346" height="189.346" rx="12.7462" stroke="#D2D2D2" stroke-width="0.653649"/>
</g>
<path fill-rule="evenodd" clip-rule="evenodd" d="M106.241 77.0026C93.2832 77.2027 90.7071 92.0224 90.7071 92.0224C90.7071 92.0224 87.7169 77.2027 74.7589 77.0026C61.8005 76.8022 53.8261 88.2172 58.2121 100.233C62.5979 112.249 66.9678 114.953 73.8537 123.664C80.7393 132.376 90.7571 147.445 90.7071 151C90.6575 147.445 100.26 132.376 107.146 123.664C114.032 114.953 118.402 112.249 122.788 100.233C127.174 88.2172 119.2 76.8022 106.241 77.0026Z" fill="white"/>
<defs>
<filter id="filter0_d_202_1047" x="0.77593" y="0.0441756" width="179.448" height="234.448" filterUnits="userSpaceOnUse" color-interpolation-filters="sRGB">
<feFlood flood-opacity="0" result="BackgroundImageFix"/>
<feColorMatrix in="SourceAlpha" type="matrix" values="0 0 0 0 0 0 0 0 0 0 0 0 0 0 0 0 0 0 127 0" result="hardAlpha"/>
<feOffset dy="3.26825"/>
<feGaussianBlur stdDeviation="11.112"/>
<feColorMatrix type="matrix" values="0 0 0 0 0 0 0 0 0 0 0 0 0 0 0 0 0 0 0.1 0"/>
<feBlend mode="normal" in2="BackgroundImageFix" result="effect1_dropShadow_202_1047"/>
<feBlend mode="normal" in="SourceGraphic" in2="effect1_dropShadow_202_1047" result="shape"/>
</filter>
</defs>
</svg>
