<svg width="1440" height="1024" viewBox="0 0 1440 1024" fill="none" xmlns="http://www.w3.org/2000/svg">
<g clip-path="url(#clip0_5_18)">
<rect width="1440" height="1024" fill="#D74E30"/>
<g filter="url(#filter0_d_5_18)">
<rect x="1070.83" y="581" width="183.022" height="257.538" rx="13.073" transform="rotate(15 1070.83 581)" fill="#F2F2F2"/>
<rect x="1071.06" y="581.4" width="182.368" height="256.884" rx="12.7462" transform="rotate(15 1071.06 581.4)" stroke="#D2D2D2" stroke-width="0.653649"/>
</g>
<path d="M1087.09 631.614L1094.05 613.918L1114.18 619.311L1112.59 625.255L1098.31 621.428L1095.35 628.91C1097.29 628.459 1099.21 628.49 1101.11 629.001C1104.53 629.917 1106.93 631.696 1108.3 634.337C1109.67 636.978 1109.85 640.205 1108.83 644.02C1108.21 646.338 1107.15 648.286 1105.67 649.863C1104.22 651.428 1102.44 652.476 1100.34 653.006C1098.24 653.52 1095.96 653.445 1093.47 652.779C1091.3 652.198 1089.41 651.222 1087.78 649.853C1086.16 648.467 1085.02 646.832 1084.36 644.946C1083.72 643.065 1083.64 641.096 1084.12 639.04L1091.18 640.93C1090.92 642.466 1091.13 643.772 1091.79 644.848C1092.48 645.913 1093.54 646.639 1094.99 647.026C1096.6 647.458 1098 647.215 1099.18 646.298C1100.36 645.364 1101.24 643.836 1101.8 641.715C1102.35 639.677 1102.27 637.98 1101.56 636.626C1100.84 635.272 1099.57 634.349 1097.73 633.855C1096.03 633.401 1094.54 633.478 1093.25 634.083L1092.39 634.54L1087.09 631.614Z" fill="#F24822"/>
<path fill-rule="evenodd" clip-rule="evenodd" d="M1066.86 684.891L1078.95 709.58L1103.25 696.717L1091.15 672.028L1066.86 684.891Z" fill="#F24822"/>
<g clip-path="url(#clip1_5_18)">
<g filter="url(#filter1_d_5_18)">
<rect x="1070.83" y="581" width="183.022" height="257.538" rx="13.073" transform="rotate(15 1070.83 581)" fill="#F2F2F2"/>
<rect x="1071.06" y="581.4" width="182.368" height="256.884" rx="12.7462" transform="rotate(15 1071.06 581.4)" stroke="#D2D2D2" stroke-width="0.653649"/>
</g>
<mask id="mask0_5_18" style="mask-type:alpha" maskUnits="userSpaceOnUse" x="1016" y="593" width="219" height="272">
<rect x="1077.59" y="593.64" width="162.759" height="236.621" transform="rotate(15 1077.59 593.64)" fill="#C4C4C4"/>
</mask>
<g mask="url(#mask0_5_18)">
<path d="M1209.15 874.197L1041.6 583.997" stroke="#2F80ED" stroke-width="287.606" stroke-dasharray="13.07 13.07"/>
</g>
</g>
<g filter="url(#filter2_d_5_18)">
<rect x="1070.83" y="581" width="183.022" height="257.538" rx="13.073" transform="rotate(15 1070.83 581)" fill="#F2F2F2"/>
<rect x="1071.06" y="581.4" width="182.368" height="256.884" rx="12.7462" transform="rotate(15 1071.06 581.4)" stroke="#D2D2D2" stroke-width="0.653649"/>
</g>
<path d="M1087.09 631.614L1094.05 613.918L1114.18 619.311L1112.59 625.255L1098.31 621.428L1095.35 628.91C1097.29 628.459 1099.21 628.49 1101.11 629.001C1104.53 629.917 1106.93 631.696 1108.3 634.337C1109.67 636.978 1109.85 640.205 1108.83 644.02C1108.21 646.338 1107.15 648.286 1105.67 649.863C1104.22 651.428 1102.44 652.476 1100.34 653.006C1098.24 653.52 1095.96 653.445 1093.47 652.779C1091.3 652.198 1089.41 651.222 1087.78 649.853C1086.16 648.467 1085.02 646.832 1084.36 644.946C1083.72 643.065 1083.64 641.096 1084.12 639.04L1091.18 640.93C1090.92 642.466 1091.13 643.772 1091.79 644.848C1092.48 645.913 1093.54 646.639 1094.99 647.026C1096.6 647.458 1098 647.215 1099.18 646.298C1100.36 645.364 1101.24 643.836 1101.8 641.715C1102.35 639.677 1102.27 637.98 1101.56 636.626C1100.84 635.272 1099.57 634.349 1097.73 633.855C1096.03 633.401 1094.54 633.478 1093.25 634.083L1092.39 634.54L1087.09 631.614Z" fill="#F24822"/>
<path fill-rule="evenodd" clip-rule="evenodd" d="M1066.86 684.891L1078.95 709.58L1103.25 696.717L1091.15 672.028L1066.86 684.891Z" fill="#F24822"/>
<g filter="url(#filter3_d_5_18)">
<rect x="1082.83" y="605" width="183.022" height="257.538" rx="13.073" transform="rotate(15 1082.83 605)" fill="#F2F2F2"/>
<rect x="1083.06" y="605.4" width="182.368" height="256.884" rx="12.7462" transform="rotate(15 1083.06 605.4)" stroke="#D2D2D2" stroke-width="0.653649"/>
</g>
<path d="M1099.09 655.614L1106.05 637.918L1126.18 643.311L1124.59 649.255L1110.31 645.428L1107.35 652.91C1109.29 652.459 1111.21 652.49 1113.11 653.001C1116.53 653.917 1118.93 655.696 1120.3 658.337C1121.67 660.978 1121.85 664.205 1120.83 668.02C1120.21 670.338 1119.15 672.286 1117.67 673.863C1116.22 675.428 1114.44 676.476 1112.34 677.006C1110.24 677.52 1107.96 677.445 1105.47 676.779C1103.3 676.198 1101.41 675.222 1099.78 673.853C1098.16 672.467 1097.02 670.832 1096.36 668.946C1095.72 667.065 1095.64 665.096 1096.12 663.04L1103.18 664.93C1102.92 666.466 1103.13 667.772 1103.79 668.848C1104.48 669.913 1105.54 670.639 1106.99 671.026C1108.6 671.458 1110 671.215 1111.18 670.298C1112.36 669.364 1113.24 667.836 1113.8 665.715C1114.35 663.677 1114.27 661.98 1113.56 660.626C1112.84 659.272 1111.57 658.349 1109.73 657.855C1108.03 657.401 1106.54 657.478 1105.25 658.083L1104.39 658.54L1099.09 655.614Z" fill="#F24822"/>
<path fill-rule="evenodd" clip-rule="evenodd" d="M1078.86 708.891L1090.95 733.58L1115.25 720.717L1103.15 696.028L1078.86 708.891Z" fill="#F24822"/>
<g clip-path="url(#clip2_5_18)">
<g filter="url(#filter4_d_5_18)">
<rect x="1082.83" y="605" width="183.022" height="257.538" rx="13.073" transform="rotate(15 1082.83 605)" fill="#F2F2F2"/>
<rect x="1083.06" y="605.4" width="182.368" height="256.884" rx="12.7462" transform="rotate(15 1083.06 605.4)" stroke="#D2D2D2" stroke-width="0.653649"/>
</g>
<mask id="mask1_5_18" style="mask-type:alpha" maskUnits="userSpaceOnUse" x="1028" y="617" width="219" height="272">
<rect x="1089.59" y="617.64" width="162.759" height="236.621" transform="rotate(15 1089.59 617.64)" fill="#C4C4C4"/>
</mask>
<g mask="url(#mask1_5_18)">
<path d="M1221.15 898.197L1053.6 607.997" stroke="#2F80ED" stroke-width="287.606" stroke-dasharray="13.07 13.07"/>
</g>
</g>
<g filter="url(#filter5_d_5_18)">
<rect x="1082.83" y="605" width="183.022" height="257.538" rx="13.073" transform="rotate(15 1082.83 605)" fill="#F2F2F2"/>
<rect x="1083.06" y="605.4" width="182.368" height="256.884" rx="12.7462" transform="rotate(15 1083.06 605.4)" stroke="#D2D2D2" stroke-width="0.653649"/>
</g>
<path d="M1099.09 655.614L1106.05 637.918L1126.18 643.311L1124.59 649.255L1110.31 645.428L1107.35 652.91C1109.29 652.459 1111.21 652.49 1113.11 653.001C1116.53 653.917 1118.93 655.696 1120.3 658.337C1121.67 660.978 1121.85 664.205 1120.83 668.02C1120.21 670.338 1119.15 672.286 1117.67 673.863C1116.22 675.428 1114.44 676.476 1112.34 677.006C1110.24 677.52 1107.96 677.445 1105.47 676.779C1103.3 676.198 1101.41 675.222 1099.78 673.853C1098.16 672.467 1097.02 670.832 1096.36 668.946C1095.72 667.065 1095.64 665.096 1096.12 663.04L1103.18 664.93C1102.92 666.466 1103.13 667.772 1103.79 668.848C1104.48 669.913 1105.54 670.639 1106.99 671.026C1108.6 671.458 1110 671.215 1111.18 670.298C1112.36 669.364 1113.24 667.836 1113.8 665.715C1114.35 663.677 1114.27 661.98 1113.56 660.626C1112.84 659.272 1111.57 658.349 1109.73 657.855C1108.03 657.401 1106.54 657.478 1105.25 658.083L1104.39 658.54L1099.09 655.614Z" fill="#F24822"/>
<path fill-rule="evenodd" clip-rule="evenodd" d="M1078.86 708.891L1090.95 733.58L1115.25 720.717L1103.15 696.028L1078.86 708.891Z" fill="#F24822"/>
<g filter="url(#filter6_d_5_18)">
<rect x="184.825" y="4.00009" width="183.022" height="257.538" rx="13.073" transform="rotate(15 184.825 4.00009)" fill="#F2F2F2"/>
<rect x="185.056" y="4.40037" width="182.368" height="256.884" rx="12.7462" transform="rotate(15 185.056 4.40037)" stroke="#D2D2D2" stroke-width="0.653649"/>
</g>
<path d="M201.091 54.6139L208.053 36.9183L228.178 42.3108L226.586 48.2546L212.306 44.4283L209.35 51.91C211.285 51.4594 213.207 51.4897 215.114 52.0007C218.534 52.9171 220.93 54.6957 222.302 57.3366C223.674 59.9775 223.849 63.2053 222.826 67.0198C222.205 69.3382 221.155 71.2859 219.675 72.8631C218.216 74.4282 216.437 75.476 214.339 76.0064C212.245 76.5203 209.957 76.4447 207.474 75.7794C205.304 75.1979 203.406 74.2225 201.782 72.8532C200.162 71.4675 199.023 69.8318 198.365 67.9462C197.723 66.0649 197.643 64.0961 198.124 62.0396L205.177 63.9296C204.924 65.4655 205.129 66.7717 205.793 67.8481C206.477 68.9125 207.542 69.6386 208.989 70.0263C210.6 70.4581 211.996 70.2152 213.176 69.2978C214.36 68.3639 215.236 66.8364 215.805 64.7154C216.351 62.6766 216.268 60.9802 215.556 59.6263C214.844 58.2723 213.567 57.3487 211.725 56.8552C210.032 56.4015 208.54 56.4775 207.25 57.0834L206.387 57.5396L201.091 54.6139Z" fill="#F24822"/>
<path fill-rule="evenodd" clip-rule="evenodd" d="M180.856 107.891L192.953 132.58L217.252 119.717L205.155 95.0281L180.856 107.891Z" fill="#F24822"/>
<g clip-path="url(#clip3_5_18)">
<g filter="url(#filter7_d_5_18)">
<rect x="184.825" y="4.00009" width="183.022" height="257.538" rx="13.073" transform="rotate(15 184.825 4.00009)" fill="#F2F2F2"/>
<rect x="185.056" y="4.40037" width="182.368" height="256.884" rx="12.7462" transform="rotate(15 185.056 4.40037)" stroke="#D2D2D2" stroke-width="0.653649"/>
</g>
<mask id="mask2_5_18" style="mask-type:alpha" maskUnits="userSpaceOnUse" x="130" y="16" width="219" height="272">
<rect x="191.589" y="16.6397" width="162.759" height="236.621" transform="rotate(15 191.589 16.6397)" fill="#C4C4C4"/>
</mask>
<g mask="url(#mask2_5_18)">
<path d="M323.148 297.197L155.6 6.99664" stroke="#2F80ED" stroke-width="287.606" stroke-dasharray="13.07 13.07"/>
</g>
</g>
<g filter="url(#filter8_d_5_18)">
<rect x="184.825" y="4.00009" width="183.022" height="257.538" rx="13.073" transform="rotate(15 184.825 4.00009)" fill="#F2F2F2"/>
<rect x="185.056" y="4.40037" width="182.368" height="256.884" rx="12.7462" transform="rotate(15 185.056 4.40037)" stroke="#D2D2D2" stroke-width="0.653649"/>
</g>
<path d="M201.091 54.6139L208.053 36.9183L228.178 42.3108L226.586 48.2546L212.306 44.4283L209.35 51.91C211.285 51.4594 213.207 51.4897 215.114 52.0007C218.534 52.9171 220.93 54.6957 222.302 57.3366C223.674 59.9775 223.849 63.2053 222.826 67.0198C222.205 69.3382 221.155 71.2859 219.675 72.8631C218.216 74.4282 216.437 75.476 214.339 76.0064C212.245 76.5203 209.957 76.4447 207.474 75.7794C205.304 75.1979 203.406 74.2225 201.782 72.8532C200.162 71.4675 199.023 69.8318 198.365 67.9462C197.723 66.0649 197.643 64.0961 198.124 62.0396L205.177 63.9296C204.924 65.4655 205.129 66.7717 205.793 67.8481C206.477 68.9125 207.542 69.6386 208.989 70.0263C210.6 70.4581 211.996 70.2152 213.176 69.2978C214.36 68.3639 215.236 66.8364 215.805 64.7154C216.351 62.6766 216.268 60.9802 215.556 59.6263C214.844 58.2723 213.567 57.3487 211.725 56.8552C210.032 56.4015 208.54 56.4775 207.25 57.0834L206.387 57.5396L201.091 54.6139Z" fill="#F24822"/>
<path fill-rule="evenodd" clip-rule="evenodd" d="M180.856 107.891L192.953 132.58L217.252 119.717L205.155 95.0281L180.856 107.891Z" fill="#F24822"/>
<g filter="url(#filter9_d_5_18)">
<rect x="359.825" y="635" width="183.022" height="257.538" rx="13.073" transform="rotate(15 359.825 635)" fill="#F2F2F2"/>
<rect x="360.056" y="635.4" width="182.368" height="256.884" rx="12.7462" transform="rotate(15 360.056 635.4)" stroke="#D2D2D2" stroke-width="0.653649"/>
</g>
<path d="M376.091 685.614L383.053 667.918L403.178 673.311L401.586 679.255L387.306 675.428L384.349 682.91C386.285 682.459 388.207 682.49 390.114 683.001C393.534 683.917 395.93 685.696 397.302 688.337C398.674 690.978 398.848 694.205 397.826 698.02C397.205 700.338 396.155 702.286 394.675 703.863C393.216 705.428 391.437 706.476 389.339 707.006C387.245 707.52 384.957 707.445 382.474 706.779C380.303 706.198 378.406 705.222 376.782 703.853C375.162 702.467 374.023 700.832 373.365 698.946C372.723 697.065 372.643 695.096 373.123 693.04L380.177 694.93C379.924 696.466 380.129 697.772 380.792 698.848C381.477 699.913 382.542 700.639 383.989 701.026C385.6 701.458 386.996 701.215 388.176 700.298C389.36 699.364 390.236 697.836 390.804 695.715C391.351 693.677 391.268 691.98 390.556 690.626C389.843 689.272 388.567 688.349 386.725 687.855C385.032 687.401 383.54 687.478 382.249 688.083L381.387 688.54L376.091 685.614Z" fill="#F24822"/>
<path fill-rule="evenodd" clip-rule="evenodd" d="M355.856 738.891L367.953 763.58L392.252 750.717L380.155 726.028L355.856 738.891Z" fill="#F24822"/>
<g clip-path="url(#clip4_5_18)">
<g filter="url(#filter10_d_5_18)">
<rect x="359.825" y="635" width="183.022" height="257.538" rx="13.073" transform="rotate(15 359.825 635)" fill="#F2F2F2"/>
<rect x="360.056" y="635.4" width="182.368" height="256.884" rx="12.7462" transform="rotate(15 360.056 635.4)" stroke="#D2D2D2" stroke-width="0.653649"/>
</g>
<mask id="mask3_5_18" style="mask-type:alpha" maskUnits="userSpaceOnUse" x="305" y="647" width="219" height="272">
<rect x="366.589" y="647.64" width="162.759" height="236.621" transform="rotate(15 366.589 647.64)" fill="#C4C4C4"/>
</mask>
<g mask="url(#mask3_5_18)">
<path d="M498.148 928.197L330.6 637.997" stroke="#2F80ED" stroke-width="287.606" stroke-dasharray="13.07 13.07"/>
</g>
</g>
<g filter="url(#filter11_d_5_18)">
<rect x="359.825" y="635" width="183.022" height="257.538" rx="13.073" transform="rotate(15 359.825 635)" fill="#F2F2F2"/>
<rect x="360.056" y="635.4" width="182.368" height="256.884" rx="12.7462" transform="rotate(15 360.056 635.4)" stroke="#D2D2D2" stroke-width="0.653649"/>
</g>
<path d="M376.091 685.614L383.053 667.918L403.178 673.311L401.586 679.255L387.306 675.428L384.349 682.91C386.285 682.459 388.207 682.49 390.114 683.001C393.534 683.917 395.93 685.696 397.302 688.337C398.674 690.978 398.848 694.205 397.826 698.02C397.205 700.338 396.155 702.286 394.675 703.863C393.216 705.428 391.437 706.476 389.339 707.006C387.245 707.52 384.957 707.445 382.474 706.779C380.303 706.198 378.406 705.222 376.782 703.853C375.162 702.467 374.023 700.832 373.365 698.946C372.723 697.065 372.643 695.096 373.123 693.04L380.177 694.93C379.924 696.466 380.129 697.772 380.792 698.848C381.477 699.913 382.542 700.639 383.989 701.026C385.6 701.458 386.996 701.215 388.176 700.298C389.36 699.364 390.236 697.836 390.804 695.715C391.351 693.677 391.268 691.98 390.556 690.626C389.843 689.272 388.567 688.349 386.725 687.855C385.032 687.401 383.54 687.478 382.249 688.083L381.387 688.54L376.091 685.614Z" fill="#F24822"/>
<path fill-rule="evenodd" clip-rule="evenodd" d="M355.856 738.891L367.953 763.58L392.252 750.717L380.155 726.028L355.856 738.891Z" fill="#F24822"/>
<g filter="url(#filter12_d_5_18)">
<rect x="170.825" y="682" width="183.022" height="257.538" rx="13.073" transform="rotate(15 170.825 682)" fill="#F2F2F2"/>
<rect x="171.056" y="682.4" width="182.368" height="256.884" rx="12.7462" transform="rotate(15 171.056 682.4)" stroke="#D2D2D2" stroke-width="0.653649"/>
</g>
<path d="M187.091 732.614L194.053 714.918L214.178 720.311L212.586 726.255L198.306 722.428L195.35 729.91C197.285 729.459 199.207 729.49 201.114 730.001C204.534 730.917 206.93 732.696 208.302 735.337C209.674 737.978 209.849 741.205 208.826 745.02C208.205 747.338 207.155 749.286 205.675 750.863C204.216 752.428 202.437 753.476 200.339 754.006C198.245 754.52 195.957 754.445 193.474 753.779C191.304 753.198 189.406 752.222 187.782 750.853C186.162 749.468 185.023 747.832 184.365 745.946C183.723 744.065 183.643 742.096 184.124 740.04L191.177 741.93C190.924 743.466 191.129 744.772 191.793 745.848C192.477 746.913 193.542 747.639 194.989 748.026C196.6 748.458 197.996 748.215 199.176 747.298C200.36 746.364 201.236 744.836 201.805 742.715C202.351 740.677 202.268 738.98 201.556 737.626C200.844 736.272 199.567 735.349 197.725 734.855C196.032 734.401 194.54 734.478 193.25 735.083L192.387 735.54L187.091 732.614Z" fill="#F24822"/>
<path fill-rule="evenodd" clip-rule="evenodd" d="M166.856 785.891L178.953 810.58L203.252 797.717L191.155 773.028L166.856 785.891Z" fill="#F24822"/>
<g clip-path="url(#clip5_5_18)">
<g filter="url(#filter13_d_5_18)">
<rect x="170.825" y="682" width="183.022" height="257.538" rx="13.073" transform="rotate(15 170.825 682)" fill="#F2F2F2"/>
<rect x="171.056" y="682.4" width="182.368" height="256.884" rx="12.7462" transform="rotate(15 171.056 682.4)" stroke="#D2D2D2" stroke-width="0.653649"/>
</g>
<mask id="mask4_5_18" style="mask-type:alpha" maskUnits="userSpaceOnUse" x="116" y="694" width="219" height="272">
<rect x="177.589" y="694.64" width="162.759" height="236.621" transform="rotate(15 177.589 694.64)" fill="#C4C4C4"/>
</mask>
<g mask="url(#mask4_5_18)">
<path d="M309.148 975.197L141.6 684.997" stroke="#2F80ED" stroke-width="287.606" stroke-dasharray="13.07 13.07"/>
</g>
</g>
<g filter="url(#filter14_d_5_18)">
<rect x="170.825" y="682" width="183.022" height="257.538" rx="13.073" transform="rotate(15 170.825 682)" fill="#F2F2F2"/>
<rect x="171.056" y="682.4" width="182.368" height="256.884" rx="12.7462" transform="rotate(15 171.056 682.4)" stroke="#D2D2D2" stroke-width="0.653649"/>
</g>
<path d="M187.091 732.614L194.053 714.918L214.178 720.311L212.586 726.255L198.306 722.428L195.35 729.91C197.285 729.459 199.207 729.49 201.114 730.001C204.534 730.917 206.93 732.696 208.302 735.337C209.674 737.978 209.849 741.205 208.826 745.02C208.205 747.338 207.155 749.286 205.675 750.863C204.216 752.428 202.437 753.476 200.339 754.006C198.245 754.52 195.957 754.445 193.474 753.779C191.304 753.198 189.406 752.222 187.782 750.853C186.162 749.468 185.023 747.832 184.365 745.946C183.723 744.065 183.643 742.096 184.124 740.04L191.177 741.93C190.924 743.466 191.129 744.772 191.793 745.848C192.477 746.913 193.542 747.639 194.989 748.026C196.6 748.458 197.996 748.215 199.176 747.298C200.36 746.364 201.236 744.836 201.805 742.715C202.351 740.677 202.268 738.98 201.556 737.626C200.844 736.272 199.567 735.349 197.725 734.855C196.032 734.401 194.54 734.478 193.25 735.083L192.387 735.54L187.091 732.614Z" fill="#F24822"/>
<path fill-rule="evenodd" clip-rule="evenodd" d="M166.856 785.891L178.953 810.58L203.252 797.717L191.155 773.028L166.856 785.891Z" fill="#F24822"/>
<g filter="url(#filter15_d_5_18)">
<rect x="239.266" y="860.545" width="183.022" height="257.538" rx="13.073" transform="rotate(-116.711 239.266 860.545)" fill="#F2F2F2"/>
<rect x="239.412" y="860.106" width="182.368" height="256.884" rx="12.7462" transform="rotate(-116.711 239.412 860.106)" stroke="#D2D2D2" stroke-width="0.653649"/>
</g>
<path d="M271.598 784.726L283.052 807.489L278.535 809.761L261.68 804.78C259.326 804.116 257.373 803.736 255.819 803.641C254.258 803.531 252.938 803.748 251.859 804.291C250.384 805.033 249.416 805.987 248.954 807.153C248.478 808.326 248.587 809.605 249.284 810.989C250.033 812.479 251.143 813.397 252.614 813.744C254.061 814.083 255.621 813.831 257.293 812.989L260.622 819.604C258.599 820.622 256.511 821.072 254.356 820.956C252.194 820.824 250.198 820.114 248.367 818.824C246.522 817.543 245.037 815.784 243.912 813.549C242.19 810.128 241.676 807.061 242.37 804.349C243.056 801.622 244.896 799.505 247.892 797.998C249.534 797.171 251.421 796.755 253.552 796.75C255.684 796.745 258.403 797.206 261.709 798.134L273.468 801.678L266.283 787.4L271.598 784.726Z" fill="#050505"/>
<path fill-rule="evenodd" clip-rule="evenodd" d="M301.835 770.702C302.334 771.694 303.026 772.53 303.851 773.196C302.165 773.029 300.377 773.334 298.707 774.174C294.325 776.379 292.415 781.43 294.441 785.456C296.467 789.482 301.661 790.959 306.044 788.753C307.634 787.953 308.896 786.778 309.765 785.413C309.864 786.285 310.11 787.148 310.523 787.968C312.549 791.994 317.744 793.47 322.126 791.265C326.508 789.06 328.418 784.009 326.393 779.983C325.935 779.074 325.315 778.296 324.58 777.66C324.582 777.659 321.877 774.768 316.336 774.761L318.997 773.422C318.997 773.422 327.958 770.346 332.933 777.946L333.58 779.232L334.887 778.575L323.839 756.62L322.533 757.277L323.18 758.564C326.318 767.087 318.508 772.451 318.508 772.451L316.027 773.699C316.813 772.783 320.526 768.036 317.808 762.936C317.773 762.863 317.741 762.789 317.704 762.716C315.678 758.69 310.484 757.214 306.101 759.419C301.719 761.624 299.809 766.676 301.835 770.702Z" fill="#1A1919"/>
<g clip-path="url(#clip6_5_18)">
<g filter="url(#filter16_d_5_18)">
<rect x="239.266" y="860.545" width="183.022" height="257.538" rx="13.073" transform="rotate(-116.711 239.266 860.545)" fill="#F2F2F2"/>
<rect x="239.412" y="860.106" width="182.368" height="256.884" rx="12.7462" transform="rotate(-116.711 239.412 860.106)" stroke="#D2D2D2" stroke-width="0.653649"/>
</g>
<mask id="mask5_5_18" style="mask-type:alpha" maskUnits="userSpaceOnUse" x="171" y="595" width="285" height="253">
<rect x="244.201" y="847.086" width="162.759" height="236.621" transform="rotate(-116.711 244.201 847.086)" fill="#C4C4C4"/>
</mask>
<g mask="url(#mask5_5_18)">
<path d="M366.105 562.2L260.949 880.368" stroke="#FB6B6B" stroke-width="287.606" stroke-dasharray="13.07 13.07"/>
</g>
</g>
<g filter="url(#filter17_d_5_18)">
<rect x="148.266" y="286.545" width="183.022" height="257.538" rx="13.073" transform="rotate(-116.711 148.266 286.545)" fill="#F2F2F2"/>
<rect x="148.412" y="286.106" width="182.368" height="256.884" rx="12.7462" transform="rotate(-116.711 148.412 286.106)" stroke="#D2D2D2" stroke-width="0.653649"/>
</g>
<path d="M180.598 210.726L192.052 233.489L187.535 235.761L170.68 230.78C168.326 230.116 166.373 229.736 164.819 229.641C163.258 229.531 161.938 229.748 160.859 230.291C159.384 231.033 158.416 231.987 157.954 233.153C157.478 234.326 157.587 235.605 158.284 236.989C159.033 238.479 160.143 239.397 161.614 239.744C163.061 240.082 164.621 239.831 166.293 238.989L169.622 245.604C167.599 246.622 165.511 247.072 163.356 246.956C161.194 246.824 159.198 246.114 157.367 244.824C155.522 243.543 154.037 241.784 152.912 239.549C151.19 236.128 150.676 233.061 151.37 230.349C152.056 227.622 153.896 225.505 156.892 223.998C158.534 223.171 160.421 222.755 162.552 222.75C164.684 222.745 167.403 223.206 170.709 224.134L182.468 227.678L175.283 213.4L180.598 210.726Z" fill="#050505"/>
<path fill-rule="evenodd" clip-rule="evenodd" d="M210.835 196.702C211.334 197.694 212.026 198.53 212.851 199.196C211.165 199.029 209.377 199.333 207.707 200.174C203.325 202.379 201.415 207.43 203.441 211.456C205.467 215.482 210.661 216.959 215.044 214.753C216.634 213.953 217.896 212.778 218.765 211.413C218.864 212.285 219.11 213.148 219.523 213.968C221.549 217.994 226.744 219.47 231.126 217.265C235.508 215.06 237.418 210.009 235.393 205.983C234.935 205.074 234.315 204.296 233.58 203.66C233.581 203.659 230.877 200.768 225.336 200.761L227.997 199.422C227.997 199.422 236.958 196.346 241.933 203.946L242.58 205.232L243.887 204.575L232.839 182.62L231.533 183.277L232.18 184.564C235.318 193.087 227.508 198.451 227.508 198.451L225.026 199.699C225.813 198.783 229.526 194.036 226.808 188.936C226.773 188.863 226.741 188.789 226.704 188.716C224.678 184.69 219.484 183.214 215.101 185.419C210.719 187.624 208.809 192.676 210.835 196.702Z" fill="#1A1919"/>
<g clip-path="url(#clip7_5_18)">
<g filter="url(#filter18_d_5_18)">
<rect x="148.266" y="286.545" width="183.022" height="257.538" rx="13.073" transform="rotate(-116.711 148.266 286.545)" fill="#F2F2F2"/>
<rect x="148.412" y="286.106" width="182.368" height="256.884" rx="12.7462" transform="rotate(-116.711 148.412 286.106)" stroke="#D2D2D2" stroke-width="0.653649"/>
</g>
<mask id="mask6_5_18" style="mask-type:alpha" maskUnits="userSpaceOnUse" x="80" y="21" width="285" height="253">
<rect x="153.201" y="273.086" width="162.759" height="236.621" transform="rotate(-116.711 153.201 273.086)" fill="#C4C4C4"/>
</mask>
<g mask="url(#mask6_5_18)">
<path d="M275.105 -11.7999L169.949 306.368" stroke="#FB6B6B" stroke-width="287.606" stroke-dasharray="13.07 13.07"/>
</g>
</g>
<g filter="url(#filter19_d_5_18)">
<rect x="288.266" y="354.545" width="183.022" height="257.538" rx="13.073" transform="rotate(-116.711 288.266 354.545)" fill="#F2F2F2"/>
<rect x="288.412" y="354.106" width="182.368" height="256.884" rx="12.7462" transform="rotate(-116.711 288.412 354.106)" stroke="#D2D2D2" stroke-width="0.653649"/>
</g>
<path d="M320.598 278.726L332.052 301.488L327.535 303.761L310.68 298.78C308.326 298.116 306.373 297.736 304.819 297.641C303.258 297.531 301.938 297.747 300.859 298.291C299.384 299.033 298.416 299.987 297.954 301.153C297.478 302.326 297.587 303.605 298.284 304.989C299.033 306.479 300.143 307.397 301.614 307.744C303.061 308.082 304.621 307.831 306.293 306.989L309.622 313.604C307.599 314.621 305.511 315.072 303.356 314.956C301.194 314.824 299.198 314.114 297.367 312.824C295.522 311.543 294.037 309.784 292.912 307.549C291.19 304.128 290.676 301.061 291.37 298.349C292.056 295.622 293.896 293.505 296.892 291.998C298.534 291.171 300.421 290.755 302.552 290.75C304.684 290.745 307.403 291.206 310.709 292.134L322.468 295.678L315.283 281.4L320.598 278.726Z" fill="#050505"/>
<path fill-rule="evenodd" clip-rule="evenodd" d="M350.835 264.702C351.334 265.694 352.026 266.53 352.851 267.196C351.165 267.029 349.377 267.333 347.707 268.174C343.325 270.379 341.415 275.43 343.441 279.456C345.467 283.482 350.661 284.958 355.044 282.753C356.634 281.953 357.896 280.778 358.765 279.413C358.864 280.285 359.11 281.148 359.523 281.968C361.549 285.994 366.744 287.47 371.126 285.265C375.508 283.06 377.418 278.009 375.393 273.983C374.935 273.074 374.315 272.296 373.58 271.66C373.582 271.659 370.877 268.768 365.336 268.761L367.997 267.422C367.997 267.422 376.958 264.346 381.933 271.946L382.58 273.232L383.887 272.575L372.839 250.62L371.533 251.277L372.18 252.564C375.318 261.087 367.508 266.451 367.508 266.451L365.027 267.699C365.813 266.783 369.526 262.036 366.808 256.936C366.773 256.863 366.741 256.789 366.704 256.716C364.678 252.69 359.484 251.214 355.101 253.419C350.719 255.624 348.809 260.675 350.835 264.702Z" fill="#1A1919"/>
<g clip-path="url(#clip8_5_18)">
<g filter="url(#filter20_d_5_18)">
<rect x="288.266" y="354.545" width="183.022" height="257.538" rx="13.073" transform="rotate(-116.711 288.266 354.545)" fill="#F2F2F2"/>
<rect x="288.412" y="354.106" width="182.368" height="256.884" rx="12.7462" transform="rotate(-116.711 288.412 354.106)" stroke="#D2D2D2" stroke-width="0.653649"/>
</g>
<mask id="mask7_5_18" style="mask-type:alpha" maskUnits="userSpaceOnUse" x="220" y="89" width="285" height="253">
<rect x="293.201" y="341.086" width="162.759" height="236.621" transform="rotate(-116.711 293.201 341.086)" fill="#C4C4C4"/>
</mask>
<g mask="url(#mask7_5_18)">
<path d="M415.105 56.2001L309.949 374.368" stroke="#FB6B6B" stroke-width="287.606" stroke-dasharray="13.07 13.07"/>
</g>
</g>
<g filter="url(#filter21_d_5_18)">
<rect x="497.266" y="343.545" width="183.022" height="257.538" rx="13.073" transform="rotate(-116.711 497.266 343.545)" fill="#F2F2F2"/>
<rect x="497.412" y="343.106" width="182.368" height="256.884" rx="12.7462" transform="rotate(-116.711 497.412 343.106)" stroke="#D2D2D2" stroke-width="0.653649"/>
</g>
<path d="M529.598 267.726L541.052 290.489L536.535 292.761L519.68 287.78C517.326 287.116 515.373 286.736 513.819 286.641C512.258 286.531 510.938 286.748 509.859 287.291C508.384 288.033 507.416 288.987 506.954 290.153C506.478 291.326 506.587 292.605 507.284 293.989C508.033 295.479 509.143 296.397 510.614 296.744C512.061 297.082 513.621 296.831 515.293 295.989L518.622 302.604C516.599 303.622 514.511 304.072 512.356 303.956C510.194 303.824 508.198 303.114 506.367 301.824C504.522 300.543 503.037 298.784 501.912 296.549C500.19 293.128 499.676 290.061 500.37 287.349C501.056 284.622 502.896 282.505 505.892 280.998C507.534 280.171 509.421 279.755 511.552 279.75C513.684 279.745 516.403 280.206 519.709 281.134L531.468 284.678L524.283 270.4L529.598 267.726Z" fill="#050505"/>
<path fill-rule="evenodd" clip-rule="evenodd" d="M559.835 253.702C560.334 254.694 561.026 255.53 561.851 256.196C560.165 256.029 558.377 256.333 556.707 257.174C552.325 259.379 550.415 264.43 552.441 268.456C554.467 272.482 559.661 273.958 564.044 271.753C565.634 270.953 566.896 269.778 567.765 268.413C567.864 269.285 568.11 270.148 568.523 270.968C570.549 274.994 575.744 276.47 580.126 274.265C584.508 272.06 586.418 267.009 584.393 262.983C583.935 262.074 583.315 261.296 582.58 260.66C582.582 260.659 579.877 257.768 574.336 257.761L576.997 256.422C576.997 256.422 585.958 253.346 590.933 260.946L591.58 262.232L592.887 261.575L581.839 239.62L580.533 240.277L581.18 241.564C584.318 250.087 576.508 255.451 576.508 255.451L574.027 256.699C574.813 255.783 578.526 251.036 575.808 245.936C575.773 245.863 575.741 245.789 575.704 245.716C573.678 241.69 568.484 240.214 564.101 242.419C559.719 244.624 557.809 249.676 559.835 253.702Z" fill="#1A1919"/>
<g clip-path="url(#clip9_5_18)">
<g filter="url(#filter22_d_5_18)">
<rect x="497.266" y="343.545" width="183.022" height="257.538" rx="13.073" transform="rotate(-116.711 497.266 343.545)" fill="#F2F2F2"/>
<rect x="497.412" y="343.106" width="182.368" height="256.884" rx="12.7462" transform="rotate(-116.711 497.412 343.106)" stroke="#D2D2D2" stroke-width="0.653649"/>
</g>
<mask id="mask8_5_18" style="mask-type:alpha" maskUnits="userSpaceOnUse" x="429" y="78" width="285" height="253">
<rect x="502.201" y="330.086" width="162.759" height="236.621" transform="rotate(-116.711 502.201 330.086)" fill="#C4C4C4"/>
</mask>
<g mask="url(#mask8_5_18)">
<path d="M624.105 45.2001L518.949 363.368" stroke="#FB6B6B" stroke-width="287.606" stroke-dasharray="13.07 13.07"/>
</g>
</g>
<g filter="url(#filter23_d_5_18)">
<rect x="727.266" y="340.545" width="183.022" height="257.538" rx="13.073" transform="rotate(-116.711 727.266 340.545)" fill="#F2F2F2"/>
<rect x="727.412" y="340.106" width="182.368" height="256.884" rx="12.7462" transform="rotate(-116.711 727.412 340.106)" stroke="#D2D2D2" stroke-width="0.653649"/>
</g>
<path d="M759.598 264.726L771.052 287.489L766.535 289.761L749.68 284.78C747.326 284.116 745.373 283.736 743.819 283.641C742.258 283.531 740.938 283.748 739.859 284.291C738.384 285.033 737.416 285.987 736.954 287.153C736.478 288.326 736.587 289.605 737.284 290.989C738.033 292.479 739.143 293.397 740.614 293.744C742.061 294.082 743.621 293.831 745.293 292.989L748.622 299.604C746.599 300.622 744.511 301.072 742.356 300.956C740.194 300.824 738.198 300.114 736.367 298.824C734.522 297.543 733.037 295.784 731.912 293.549C730.19 290.128 729.676 287.061 730.37 284.349C731.056 281.622 732.896 279.505 735.892 277.998C737.534 277.171 739.421 276.755 741.552 276.75C743.684 276.745 746.403 277.206 749.709 278.134L761.468 281.678L754.283 267.4L759.598 264.726Z" fill="#050505"/>
<path fill-rule="evenodd" clip-rule="evenodd" d="M789.835 250.702C790.334 251.694 791.026 252.53 791.851 253.196C790.165 253.029 788.377 253.333 786.707 254.174C782.325 256.379 780.415 261.43 782.441 265.456C784.467 269.482 789.661 270.958 794.044 268.753C795.634 267.953 796.896 266.778 797.765 265.413C797.864 266.285 798.11 267.148 798.523 267.968C800.549 271.994 805.744 273.47 810.126 271.265C814.508 269.06 816.418 264.009 814.393 259.983C813.935 259.074 813.315 258.296 812.58 257.66C812.582 257.659 809.877 254.768 804.336 254.761L806.997 253.422C806.997 253.422 815.958 250.346 820.933 257.946L821.58 259.232L822.887 258.575L811.839 236.62L810.533 237.277L811.18 238.564C814.318 247.087 806.508 252.451 806.508 252.451L804.027 253.699C804.813 252.783 808.526 248.036 805.808 242.936C805.773 242.863 805.741 242.789 805.704 242.716C803.678 238.69 798.484 237.214 794.101 239.419C789.719 241.624 787.809 246.676 789.835 250.702Z" fill="#1A1919"/>
<g clip-path="url(#clip10_5_18)">
<g filter="url(#filter24_d_5_18)">
<rect x="727.266" y="340.545" width="183.022" height="257.538" rx="13.073" transform="rotate(-116.711 727.266 340.545)" fill="#F2F2F2"/>
<rect x="727.412" y="340.106" width="182.368" height="256.884" rx="12.7462" transform="rotate(-116.711 727.412 340.106)" stroke="#D2D2D2" stroke-width="0.653649"/>
</g>
<mask id="mask9_5_18" style="mask-type:alpha" maskUnits="userSpaceOnUse" x="659" y="75" width="285" height="253">
<rect x="732.201" y="327.086" width="162.759" height="236.621" transform="rotate(-116.711 732.201 327.086)" fill="#C4C4C4"/>
</mask>
<g mask="url(#mask9_5_18)">
<path d="M854.105 42.2001L748.949 360.368" stroke="#FB6B6B" stroke-width="287.606" stroke-dasharray="13.07 13.07"/>
</g>
</g>
<g filter="url(#filter25_d_5_18)">
<rect x="957.266" y="337.545" width="183.022" height="257.538" rx="13.073" transform="rotate(-116.711 957.266 337.545)" fill="#F2F2F2"/>
<rect x="957.412" y="337.106" width="182.368" height="256.884" rx="12.7462" transform="rotate(-116.711 957.412 337.106)" stroke="#D2D2D2" stroke-width="0.653649"/>
</g>
<path d="M989.598 261.726L1001.05 284.489L996.535 286.761L979.68 281.78C977.326 281.116 975.373 280.736 973.819 280.641C972.258 280.531 970.938 280.748 969.859 281.291C968.384 282.033 967.416 282.987 966.954 284.153C966.478 285.326 966.587 286.605 967.284 287.989C968.033 289.479 969.143 290.397 970.614 290.744C972.061 291.082 973.621 290.831 975.293 289.989L978.622 296.604C976.599 297.622 974.511 298.072 972.356 297.956C970.194 297.824 968.198 297.114 966.367 295.824C964.522 294.543 963.037 292.784 961.912 290.549C960.19 287.128 959.676 284.061 960.37 281.349C961.056 278.622 962.896 276.505 965.892 274.998C967.534 274.171 969.421 273.755 971.552 273.75C973.684 273.745 976.403 274.206 979.709 275.134L991.468 278.678L984.283 264.4L989.598 261.726Z" fill="#050505"/>
<path fill-rule="evenodd" clip-rule="evenodd" d="M1019.83 247.702C1020.33 248.694 1021.03 249.53 1021.85 250.196C1020.17 250.029 1018.38 250.333 1016.71 251.174C1012.33 253.379 1010.41 258.43 1012.44 262.456C1014.47 266.482 1019.66 267.958 1024.04 265.753C1025.63 264.953 1026.9 263.778 1027.77 262.413C1027.86 263.285 1028.11 264.148 1028.52 264.968C1030.55 268.994 1035.74 270.47 1040.13 268.265C1044.51 266.06 1046.42 261.009 1044.39 256.983C1043.94 256.074 1043.31 255.296 1042.58 254.66C1042.58 254.659 1039.88 251.768 1034.34 251.761L1037 250.422C1037 250.422 1045.96 247.346 1050.93 254.946L1051.58 256.232L1052.89 255.575L1041.84 233.62L1040.53 234.277L1041.18 235.564C1044.32 244.087 1036.51 249.451 1036.51 249.451L1034.03 250.699C1034.81 249.783 1038.53 245.036 1035.81 239.936C1035.77 239.863 1035.74 239.789 1035.7 239.716C1033.68 235.69 1028.48 234.214 1024.1 236.419C1019.72 238.624 1017.81 243.676 1019.83 247.702Z" fill="#1A1919"/>
<g clip-path="url(#clip11_5_18)">
<g filter="url(#filter26_d_5_18)">
<rect x="957.266" y="337.545" width="183.022" height="257.538" rx="13.073" transform="rotate(-116.711 957.266 337.545)" fill="#F2F2F2"/>
<rect x="957.412" y="337.106" width="182.368" height="256.884" rx="12.7462" transform="rotate(-116.711 957.412 337.106)" stroke="#D2D2D2" stroke-width="0.653649"/>
</g>
<mask id="mask10_5_18" style="mask-type:alpha" maskUnits="userSpaceOnUse" x="889" y="72" width="285" height="253">
<rect x="962.201" y="324.086" width="162.759" height="236.621" transform="rotate(-116.711 962.201 324.086)" fill="#C4C4C4"/>
</mask>
<g mask="url(#mask10_5_18)">
<path d="M1084.1 39.2001L978.949 357.368" stroke="#FB6B6B" stroke-width="287.606" stroke-dasharray="13.07 13.07"/>
</g>
</g>
<g filter="url(#filter27_d_5_18)">
<rect x="1187.27" y="334.545" width="183.022" height="257.538" rx="13.073" transform="rotate(-116.711 1187.27 334.545)" fill="#F2F2F2"/>
<rect x="1187.41" y="334.106" width="182.368" height="256.884" rx="12.7462" transform="rotate(-116.711 1187.41 334.106)" stroke="#D2D2D2" stroke-width="0.653649"/>
</g>
<path d="M1219.6 258.726L1231.05 281.489L1226.54 283.761L1209.68 278.78C1207.33 278.116 1205.37 277.736 1203.82 277.641C1202.26 277.531 1200.94 277.748 1199.86 278.291C1198.38 279.033 1197.42 279.987 1196.95 281.153C1196.48 282.326 1196.59 283.605 1197.28 284.989C1198.03 286.479 1199.14 287.397 1200.61 287.744C1202.06 288.082 1203.62 287.831 1205.29 286.989L1208.62 293.604C1206.6 294.622 1204.51 295.072 1202.36 294.956C1200.19 294.824 1198.2 294.114 1196.37 292.824C1194.52 291.543 1193.04 289.784 1191.91 287.549C1190.19 284.128 1189.68 281.061 1190.37 278.349C1191.06 275.622 1192.9 273.505 1195.89 271.998C1197.53 271.171 1199.42 270.755 1201.55 270.75C1203.68 270.745 1206.4 271.206 1209.71 272.134L1221.47 275.678L1214.28 261.4L1219.6 258.726Z" fill="#050505"/>
<path fill-rule="evenodd" clip-rule="evenodd" d="M1249.83 244.702C1250.33 245.694 1251.03 246.53 1251.85 247.196C1250.17 247.029 1248.38 247.333 1246.71 248.174C1242.33 250.379 1240.41 255.43 1242.44 259.456C1244.47 263.482 1249.66 264.958 1254.04 262.753C1255.63 261.953 1256.9 260.778 1257.77 259.413C1257.86 260.285 1258.11 261.148 1258.52 261.968C1260.55 265.994 1265.74 267.47 1270.13 265.265C1274.51 263.06 1276.42 258.009 1274.39 253.983C1273.94 253.074 1273.31 252.296 1272.58 251.66C1272.58 251.659 1269.88 248.768 1264.34 248.761L1267 247.422C1267 247.422 1275.96 244.346 1280.93 251.946L1281.58 253.232L1282.89 252.575L1271.84 230.62L1270.53 231.277L1271.18 232.564C1274.32 241.087 1266.51 246.451 1266.51 246.451L1264.03 247.699C1264.81 246.783 1268.53 242.036 1265.81 236.936C1265.77 236.863 1265.74 236.789 1265.7 236.716C1263.68 232.69 1258.48 231.214 1254.1 233.419C1249.72 235.624 1247.81 240.676 1249.83 244.702Z" fill="#1A1919"/>
<g clip-path="url(#clip12_5_18)">
<g filter="url(#filter28_d_5_18)">
<rect x="1187.27" y="334.545" width="183.022" height="257.538" rx="13.073" transform="rotate(-116.711 1187.27 334.545)" fill="#F2F2F2"/>
<rect x="1187.41" y="334.106" width="182.368" height="256.884" rx="12.7462" transform="rotate(-116.711 1187.41 334.106)" stroke="#D2D2D2" stroke-width="0.653649"/>
</g>
<mask id="mask11_5_18" style="mask-type:alpha" maskUnits="userSpaceOnUse" x="1119" y="69" width="285" height="253">
<rect x="1192.2" y="321.086" width="162.759" height="236.621" transform="rotate(-116.711 1192.2 321.086)" fill="#C4C4C4"/>
</mask>
<g mask="url(#mask11_5_18)">
<path d="M1314.1 36.2001L1208.95 354.368" stroke="#FB6B6B" stroke-width="287.606" stroke-dasharray="13.07 13.07"/>
</g>
</g>
<g filter="url(#filter29_d_5_18)">
<rect x="1417.27" y="331.545" width="183.022" height="257.538" rx="13.073" transform="rotate(-116.711 1417.27 331.545)" fill="#F2F2F2"/>
<rect x="1417.41" y="331.106" width="182.368" height="256.884" rx="12.7462" transform="rotate(-116.711 1417.41 331.106)" stroke="#D2D2D2" stroke-width="0.653649"/>
</g>
<path d="M1449.6 255.726L1461.05 278.489L1456.54 280.761L1439.68 275.78C1437.33 275.116 1435.37 274.736 1433.82 274.641C1432.26 274.531 1430.94 274.748 1429.86 275.291C1428.38 276.033 1427.42 276.987 1426.95 278.153C1426.48 279.326 1426.59 280.605 1427.28 281.989C1428.03 283.479 1429.14 284.397 1430.61 284.744C1432.06 285.082 1433.62 284.831 1435.29 283.989L1438.62 290.604C1436.6 291.622 1434.51 292.072 1432.36 291.956C1430.19 291.824 1428.2 291.114 1426.37 289.824C1424.52 288.543 1423.04 286.784 1421.91 284.549C1420.19 281.128 1419.68 278.061 1420.37 275.349C1421.06 272.622 1422.9 270.505 1425.89 268.998C1427.53 268.171 1429.42 267.755 1431.55 267.75C1433.68 267.745 1436.4 268.206 1439.71 269.134L1451.47 272.678L1444.28 258.4L1449.6 255.726Z" fill="#050505"/>
<g clip-path="url(#clip13_5_18)">
<g filter="url(#filter30_d_5_18)">
<rect x="1417.27" y="331.545" width="183.022" height="257.538" rx="13.073" transform="rotate(-116.711 1417.27 331.545)" fill="#F2F2F2"/>
<rect x="1417.41" y="331.106" width="182.368" height="256.884" rx="12.7462" transform="rotate(-116.711 1417.41 331.106)" stroke="#D2D2D2" stroke-width="0.653649"/>
</g>
<mask id="mask12_5_18" style="mask-type:alpha" maskUnits="userSpaceOnUse" x="1349" y="66" width="285" height="253">
<rect x="1422.2" y="318.086" width="162.759" height="236.621" transform="rotate(-116.711 1422.2 318.086)" fill="#C4C4C4"/>
</mask>
<g mask="url(#mask12_5_18)">
<path d="M1544.11 33.2001L1438.95 351.368" stroke="#FB6B6B" stroke-width="287.606" stroke-dasharray="13.07 13.07"/>
</g>
</g>
</g>
<defs>
<filter id="filter0_d_5_18" x="984.88" y="564.979" width="282.02" height="334.71" filterUnits="userSpaceOnUse" color-interpolation-filters="sRGB">
<feFlood flood-opacity="0" result="BackgroundImageFix"/>
<feColorMatrix in="SourceAlpha" type="matrix" values="0 0 0 0 0 0 0 0 0 0 0 0 0 0 0 0 0 0 127 0" result="hardAlpha"/>
<feOffset dy="3.26824"/>
<feGaussianBlur stdDeviation="11.112"/>
<feColorMatrix type="matrix" values="0 0 0 0 0 0 0 0 0 0 0 0 0 0 0 0 0 0 0.1 0"/>
<feBlend mode="normal" in2="BackgroundImageFix" result="effect1_dropShadow_5_18"/>
<feBlend mode="normal" in="SourceGraphic" in2="effect1_dropShadow_5_18" result="shape"/>
</filter>
<filter id="filter1_d_5_18" x="984.88" y="564.979" width="282.02" height="334.71" filterUnits="userSpaceOnUse" color-interpolation-filters="sRGB">
<feFlood flood-opacity="0" result="BackgroundImageFix"/>
<feColorMatrix in="SourceAlpha" type="matrix" values="0 0 0 0 0 0 0 0 0 0 0 0 0 0 0 0 0 0 127 0" result="hardAlpha"/>
<feOffset dy="3.26825"/>
<feGaussianBlur stdDeviation="11.112"/>
<feColorMatrix type="matrix" values="0 0 0 0 0 0 0 0 0 0 0 0 0 0 0 0 0 0 0.1 0"/>
<feBlend mode="normal" in2="BackgroundImageFix" result="effect1_dropShadow_5_18"/>
<feBlend mode="normal" in="SourceGraphic" in2="effect1_dropShadow_5_18" result="shape"/>
</filter>
<filter id="filter2_d_5_18" x="984.88" y="564.979" width="282.02" height="334.71" filterUnits="userSpaceOnUse" color-interpolation-filters="sRGB">
<feFlood flood-opacity="0" result="BackgroundImageFix"/>
<feColorMatrix in="SourceAlpha" type="matrix" values="0 0 0 0 0 0 0 0 0 0 0 0 0 0 0 0 0 0 127 0" result="hardAlpha"/>
<feOffset dy="3.26824"/>
<feGaussianBlur stdDeviation="11.112"/>
<feColorMatrix type="matrix" values="0 0 0 0 0 0 0 0 0 0 0 0 0 0 0 0 0 0 0.1 0"/>
<feBlend mode="normal" in2="BackgroundImageFix" result="effect1_dropShadow_5_18"/>
<feBlend mode="normal" in="SourceGraphic" in2="effect1_dropShadow_5_18" result="shape"/>
</filter>
<filter id="filter3_d_5_18" x="996.88" y="588.979" width="282.02" height="334.71" filterUnits="userSpaceOnUse" color-interpolation-filters="sRGB">
<feFlood flood-opacity="0" result="BackgroundImageFix"/>
<feColorMatrix in="SourceAlpha" type="matrix" values="0 0 0 0 0 0 0 0 0 0 0 0 0 0 0 0 0 0 127 0" result="hardAlpha"/>
<feOffset dy="3.26824"/>
<feGaussianBlur stdDeviation="11.112"/>
<feColorMatrix type="matrix" values="0 0 0 0 0 0 0 0 0 0 0 0 0 0 0 0 0 0 0.1 0"/>
<feBlend mode="normal" in2="BackgroundImageFix" result="effect1_dropShadow_5_18"/>
<feBlend mode="normal" in="SourceGraphic" in2="effect1_dropShadow_5_18" result="shape"/>
</filter>
<filter id="filter4_d_5_18" x="996.88" y="588.979" width="282.02" height="334.71" filterUnits="userSpaceOnUse" color-interpolation-filters="sRGB">
<feFlood flood-opacity="0" result="BackgroundImageFix"/>
<feColorMatrix in="SourceAlpha" type="matrix" values="0 0 0 0 0 0 0 0 0 0 0 0 0 0 0 0 0 0 127 0" result="hardAlpha"/>
<feOffset dy="3.26825"/>
<feGaussianBlur stdDeviation="11.112"/>
<feColorMatrix type="matrix" values="0 0 0 0 0 0 0 0 0 0 0 0 0 0 0 0 0 0 0.1 0"/>
<feBlend mode="normal" in2="BackgroundImageFix" result="effect1_dropShadow_5_18"/>
<feBlend mode="normal" in="SourceGraphic" in2="effect1_dropShadow_5_18" result="shape"/>
</filter>
<filter id="filter5_d_5_18" x="996.88" y="588.979" width="282.02" height="334.71" filterUnits="userSpaceOnUse" color-interpolation-filters="sRGB">
<feFlood flood-opacity="0" result="BackgroundImageFix"/>
<feColorMatrix in="SourceAlpha" type="matrix" values="0 0 0 0 0 0 0 0 0 0 0 0 0 0 0 0 0 0 127 0" result="hardAlpha"/>
<feOffset dy="3.26824"/>
<feGaussianBlur stdDeviation="11.112"/>
<feColorMatrix type="matrix" values="0 0 0 0 0 0 0 0 0 0 0 0 0 0 0 0 0 0 0.1 0"/>
<feBlend mode="normal" in2="BackgroundImageFix" result="effect1_dropShadow_5_18"/>
<feBlend mode="normal" in="SourceGraphic" in2="effect1_dropShadow_5_18" result="shape"/>
</filter>
<filter id="filter6_d_5_18" x="98.8804" y="-12.0209" width="282.019" height="334.71" filterUnits="userSpaceOnUse" color-interpolation-filters="sRGB">
<feFlood flood-opacity="0" result="BackgroundImageFix"/>
<feColorMatrix in="SourceAlpha" type="matrix" values="0 0 0 0 0 0 0 0 0 0 0 0 0 0 0 0 0 0 127 0" result="hardAlpha"/>
<feOffset dy="3.26824"/>
<feGaussianBlur stdDeviation="11.112"/>
<feColorMatrix type="matrix" values="0 0 0 0 0 0 0 0 0 0 0 0 0 0 0 0 0 0 0.1 0"/>
<feBlend mode="normal" in2="BackgroundImageFix" result="effect1_dropShadow_5_18"/>
<feBlend mode="normal" in="SourceGraphic" in2="effect1_dropShadow_5_18" result="shape"/>
</filter>
<filter id="filter7_d_5_18" x="98.8804" y="-12.0209" width="282.019" height="334.71" filterUnits="userSpaceOnUse" color-interpolation-filters="sRGB">
<feFlood flood-opacity="0" result="BackgroundImageFix"/>
<feColorMatrix in="SourceAlpha" type="matrix" values="0 0 0 0 0 0 0 0 0 0 0 0 0 0 0 0 0 0 127 0" result="hardAlpha"/>
<feOffset dy="3.26825"/>
<feGaussianBlur stdDeviation="11.112"/>
<feColorMatrix type="matrix" values="0 0 0 0 0 0 0 0 0 0 0 0 0 0 0 0 0 0 0.1 0"/>
<feBlend mode="normal" in2="BackgroundImageFix" result="effect1_dropShadow_5_18"/>
<feBlend mode="normal" in="SourceGraphic" in2="effect1_dropShadow_5_18" result="shape"/>
</filter>
<filter id="filter8_d_5_18" x="98.8804" y="-12.0209" width="282.019" height="334.71" filterUnits="userSpaceOnUse" color-interpolation-filters="sRGB">
<feFlood flood-opacity="0" result="BackgroundImageFix"/>
<feColorMatrix in="SourceAlpha" type="matrix" values="0 0 0 0 0 0 0 0 0 0 0 0 0 0 0 0 0 0 127 0" result="hardAlpha"/>
<feOffset dy="3.26824"/>
<feGaussianBlur stdDeviation="11.112"/>
<feColorMatrix type="matrix" values="0 0 0 0 0 0 0 0 0 0 0 0 0 0 0 0 0 0 0.1 0"/>
<feBlend mode="normal" in2="BackgroundImageFix" result="effect1_dropShadow_5_18"/>
<feBlend mode="normal" in="SourceGraphic" in2="effect1_dropShadow_5_18" result="shape"/>
</filter>
<filter id="filter9_d_5_18" x="273.88" y="618.979" width="282.02" height="334.71" filterUnits="userSpaceOnUse" color-interpolation-filters="sRGB">
<feFlood flood-opacity="0" result="BackgroundImageFix"/>
<feColorMatrix in="SourceAlpha" type="matrix" values="0 0 0 0 0 0 0 0 0 0 0 0 0 0 0 0 0 0 127 0" result="hardAlpha"/>
<feOffset dy="3.26824"/>
<feGaussianBlur stdDeviation="11.112"/>
<feColorMatrix type="matrix" values="0 0 0 0 0 0 0 0 0 0 0 0 0 0 0 0 0 0 0.1 0"/>
<feBlend mode="normal" in2="BackgroundImageFix" result="effect1_dropShadow_5_18"/>
<feBlend mode="normal" in="SourceGraphic" in2="effect1_dropShadow_5_18" result="shape"/>
</filter>
<filter id="filter10_d_5_18" x="273.88" y="618.979" width="282.02" height="334.71" filterUnits="userSpaceOnUse" color-interpolation-filters="sRGB">
<feFlood flood-opacity="0" result="BackgroundImageFix"/>
<feColorMatrix in="SourceAlpha" type="matrix" values="0 0 0 0 0 0 0 0 0 0 0 0 0 0 0 0 0 0 127 0" result="hardAlpha"/>
<feOffset dy="3.26825"/>
<feGaussianBlur stdDeviation="11.112"/>
<feColorMatrix type="matrix" values="0 0 0 0 0 0 0 0 0 0 0 0 0 0 0 0 0 0 0.1 0"/>
<feBlend mode="normal" in2="BackgroundImageFix" result="effect1_dropShadow_5_18"/>
<feBlend mode="normal" in="SourceGraphic" in2="effect1_dropShadow_5_18" result="shape"/>
</filter>
<filter id="filter11_d_5_18" x="273.88" y="618.979" width="282.02" height="334.71" filterUnits="userSpaceOnUse" color-interpolation-filters="sRGB">
<feFlood flood-opacity="0" result="BackgroundImageFix"/>
<feColorMatrix in="SourceAlpha" type="matrix" values="0 0 0 0 0 0 0 0 0 0 0 0 0 0 0 0 0 0 127 0" result="hardAlpha"/>
<feOffset dy="3.26824"/>
<feGaussianBlur stdDeviation="11.112"/>
<feColorMatrix type="matrix" values="0 0 0 0 0 0 0 0 0 0 0 0 0 0 0 0 0 0 0.1 0"/>
<feBlend mode="normal" in2="BackgroundImageFix" result="effect1_dropShadow_5_18"/>
<feBlend mode="normal" in="SourceGraphic" in2="effect1_dropShadow_5_18" result="shape"/>
</filter>
<filter id="filter12_d_5_18" x="84.8804" y="665.979" width="282.019" height="334.71" filterUnits="userSpaceOnUse" color-interpolation-filters="sRGB">
<feFlood flood-opacity="0" result="BackgroundImageFix"/>
<feColorMatrix in="SourceAlpha" type="matrix" values="0 0 0 0 0 0 0 0 0 0 0 0 0 0 0 0 0 0 127 0" result="hardAlpha"/>
<feOffset dy="3.26824"/>
<feGaussianBlur stdDeviation="11.112"/>
<feColorMatrix type="matrix" values="0 0 0 0 0 0 0 0 0 0 0 0 0 0 0 0 0 0 0.1 0"/>
<feBlend mode="normal" in2="BackgroundImageFix" result="effect1_dropShadow_5_18"/>
<feBlend mode="normal" in="SourceGraphic" in2="effect1_dropShadow_5_18" result="shape"/>
</filter>
<filter id="filter13_d_5_18" x="84.8804" y="665.979" width="282.019" height="334.71" filterUnits="userSpaceOnUse" color-interpolation-filters="sRGB">
<feFlood flood-opacity="0" result="BackgroundImageFix"/>
<feColorMatrix in="SourceAlpha" type="matrix" values="0 0 0 0 0 0 0 0 0 0 0 0 0 0 0 0 0 0 127 0" result="hardAlpha"/>
<feOffset dy="3.26825"/>
<feGaussianBlur stdDeviation="11.112"/>
<feColorMatrix type="matrix" values="0 0 0 0 0 0 0 0 0 0 0 0 0 0 0 0 0 0 0.1 0"/>
<feBlend mode="normal" in2="BackgroundImageFix" result="effect1_dropShadow_5_18"/>
<feBlend mode="normal" in="SourceGraphic" in2="effect1_dropShadow_5_18" result="shape"/>
</filter>
<filter id="filter14_d_5_18" x="84.8804" y="665.979" width="282.019" height="334.71" filterUnits="userSpaceOnUse" color-interpolation-filters="sRGB">
<feFlood flood-opacity="0" result="BackgroundImageFix"/>
<feColorMatrix in="SourceAlpha" type="matrix" values="0 0 0 0 0 0 0 0 0 0 0 0 0 0 0 0 0 0 127 0" result="hardAlpha"/>
<feOffset dy="3.26824"/>
<feGaussianBlur stdDeviation="11.112"/>
<feColorMatrix type="matrix" values="0 0 0 0 0 0 0 0 0 0 0 0 0 0 0 0 0 0 0.1 0"/>
<feBlend mode="normal" in2="BackgroundImageFix" result="effect1_dropShadow_5_18"/>
<feBlend mode="normal" in="SourceGraphic" in2="effect1_dropShadow_5_18" result="shape"/>
</filter>
<filter id="filter15_d_5_18" x="139.254" y="566.816" width="347.813" height="314.743" filterUnits="userSpaceOnUse" color-interpolation-filters="sRGB">
<feFlood flood-opacity="0" result="BackgroundImageFix"/>
<feColorMatrix in="SourceAlpha" type="matrix" values="0 0 0 0 0 0 0 0 0 0 0 0 0 0 0 0 0 0 127 0" result="hardAlpha"/>
<feOffset dy="3.26824"/>
<feGaussianBlur stdDeviation="11.112"/>
<feColorMatrix type="matrix" values="0 0 0 0 0 0 0 0 0 0 0 0 0 0 0 0 0 0 0.1 0"/>
<feBlend mode="normal" in2="BackgroundImageFix" result="effect1_dropShadow_5_18"/>
<feBlend mode="normal" in="SourceGraphic" in2="effect1_dropShadow_5_18" result="shape"/>
</filter>
<filter id="filter16_d_5_18" x="139.254" y="566.816" width="347.813" height="314.743" filterUnits="userSpaceOnUse" color-interpolation-filters="sRGB">
<feFlood flood-opacity="0" result="BackgroundImageFix"/>
<feColorMatrix in="SourceAlpha" type="matrix" values="0 0 0 0 0 0 0 0 0 0 0 0 0 0 0 0 0 0 127 0" result="hardAlpha"/>
<feOffset dy="3.26825"/>
<feGaussianBlur stdDeviation="11.112"/>
<feColorMatrix type="matrix" values="0 0 0 0 0 0 0 0 0 0 0 0 0 0 0 0 0 0 0.1 0"/>
<feBlend mode="normal" in2="BackgroundImageFix" result="effect1_dropShadow_5_18"/>
<feBlend mode="normal" in="SourceGraphic" in2="effect1_dropShadow_5_18" result="shape"/>
</filter>
<filter id="filter17_d_5_18" x="48.2542" y="-7.18373" width="347.813" height="314.743" filterUnits="userSpaceOnUse" color-interpolation-filters="sRGB">
<feFlood flood-opacity="0" result="BackgroundImageFix"/>
<feColorMatrix in="SourceAlpha" type="matrix" values="0 0 0 0 0 0 0 0 0 0 0 0 0 0 0 0 0 0 127 0" result="hardAlpha"/>
<feOffset dy="3.26824"/>
<feGaussianBlur stdDeviation="11.112"/>
<feColorMatrix type="matrix" values="0 0 0 0 0 0 0 0 0 0 0 0 0 0 0 0 0 0 0.1 0"/>
<feBlend mode="normal" in2="BackgroundImageFix" result="effect1_dropShadow_5_18"/>
<feBlend mode="normal" in="SourceGraphic" in2="effect1_dropShadow_5_18" result="shape"/>
</filter>
<filter id="filter18_d_5_18" x="48.2542" y="-7.18376" width="347.813" height="314.743" filterUnits="userSpaceOnUse" color-interpolation-filters="sRGB">
<feFlood flood-opacity="0" result="BackgroundImageFix"/>
<feColorMatrix in="SourceAlpha" type="matrix" values="0 0 0 0 0 0 0 0 0 0 0 0 0 0 0 0 0 0 127 0" result="hardAlpha"/>
<feOffset dy="3.26825"/>
<feGaussianBlur stdDeviation="11.112"/>
<feColorMatrix type="matrix" values="0 0 0 0 0 0 0 0 0 0 0 0 0 0 0 0 0 0 0.1 0"/>
<feBlend mode="normal" in2="BackgroundImageFix" result="effect1_dropShadow_5_18"/>
<feBlend mode="normal" in="SourceGraphic" in2="effect1_dropShadow_5_18" result="shape"/>
</filter>
<filter id="filter19_d_5_18" x="188.254" y="60.8162" width="347.813" height="314.743" filterUnits="userSpaceOnUse" color-interpolation-filters="sRGB">
<feFlood flood-opacity="0" result="BackgroundImageFix"/>
<feColorMatrix in="SourceAlpha" type="matrix" values="0 0 0 0 0 0 0 0 0 0 0 0 0 0 0 0 0 0 127 0" result="hardAlpha"/>
<feOffset dy="3.26824"/>
<feGaussianBlur stdDeviation="11.112"/>
<feColorMatrix type="matrix" values="0 0 0 0 0 0 0 0 0 0 0 0 0 0 0 0 0 0 0.1 0"/>
<feBlend mode="normal" in2="BackgroundImageFix" result="effect1_dropShadow_5_18"/>
<feBlend mode="normal" in="SourceGraphic" in2="effect1_dropShadow_5_18" result="shape"/>
</filter>
<filter id="filter20_d_5_18" x="188.254" y="60.8162" width="347.813" height="314.743" filterUnits="userSpaceOnUse" color-interpolation-filters="sRGB">
<feFlood flood-opacity="0" result="BackgroundImageFix"/>
<feColorMatrix in="SourceAlpha" type="matrix" values="0 0 0 0 0 0 0 0 0 0 0 0 0 0 0 0 0 0 127 0" result="hardAlpha"/>
<feOffset dy="3.26825"/>
<feGaussianBlur stdDeviation="11.112"/>
<feColorMatrix type="matrix" values="0 0 0 0 0 0 0 0 0 0 0 0 0 0 0 0 0 0 0.1 0"/>
<feBlend mode="normal" in2="BackgroundImageFix" result="effect1_dropShadow_5_18"/>
<feBlend mode="normal" in="SourceGraphic" in2="effect1_dropShadow_5_18" result="shape"/>
</filter>
<filter id="filter21_d_5_18" x="397.254" y="49.8163" width="347.813" height="314.743" filterUnits="userSpaceOnUse" color-interpolation-filters="sRGB">
<feFlood flood-opacity="0" result="BackgroundImageFix"/>
<feColorMatrix in="SourceAlpha" type="matrix" values="0 0 0 0 0 0 0 0 0 0 0 0 0 0 0 0 0 0 127 0" result="hardAlpha"/>
<feOffset dy="3.26824"/>
<feGaussianBlur stdDeviation="11.112"/>
<feColorMatrix type="matrix" values="0 0 0 0 0 0 0 0 0 0 0 0 0 0 0 0 0 0 0.1 0"/>
<feBlend mode="normal" in2="BackgroundImageFix" result="effect1_dropShadow_5_18"/>
<feBlend mode="normal" in="SourceGraphic" in2="effect1_dropShadow_5_18" result="shape"/>
</filter>
<filter id="filter22_d_5_18" x="397.254" y="49.8162" width="347.813" height="314.743" filterUnits="userSpaceOnUse" color-interpolation-filters="sRGB">
<feFlood flood-opacity="0" result="BackgroundImageFix"/>
<feColorMatrix in="SourceAlpha" type="matrix" values="0 0 0 0 0 0 0 0 0 0 0 0 0 0 0 0 0 0 127 0" result="hardAlpha"/>
<feOffset dy="3.26825"/>
<feGaussianBlur stdDeviation="11.112"/>
<feColorMatrix type="matrix" values="0 0 0 0 0 0 0 0 0 0 0 0 0 0 0 0 0 0 0.1 0"/>
<feBlend mode="normal" in2="BackgroundImageFix" result="effect1_dropShadow_5_18"/>
<feBlend mode="normal" in="SourceGraphic" in2="effect1_dropShadow_5_18" result="shape"/>
</filter>
<filter id="filter23_d_5_18" x="627.254" y="46.8163" width="347.813" height="314.743" filterUnits="userSpaceOnUse" color-interpolation-filters="sRGB">
<feFlood flood-opacity="0" result="BackgroundImageFix"/>
<feColorMatrix in="SourceAlpha" type="matrix" values="0 0 0 0 0 0 0 0 0 0 0 0 0 0 0 0 0 0 127 0" result="hardAlpha"/>
<feOffset dy="3.26824"/>
<feGaussianBlur stdDeviation="11.112"/>
<feColorMatrix type="matrix" values="0 0 0 0 0 0 0 0 0 0 0 0 0 0 0 0 0 0 0.1 0"/>
<feBlend mode="normal" in2="BackgroundImageFix" result="effect1_dropShadow_5_18"/>
<feBlend mode="normal" in="SourceGraphic" in2="effect1_dropShadow_5_18" result="shape"/>
</filter>
<filter id="filter24_d_5_18" x="627.254" y="46.8162" width="347.813" height="314.743" filterUnits="userSpaceOnUse" color-interpolation-filters="sRGB">
<feFlood flood-opacity="0" result="BackgroundImageFix"/>
<feColorMatrix in="SourceAlpha" type="matrix" values="0 0 0 0 0 0 0 0 0 0 0 0 0 0 0 0 0 0 127 0" result="hardAlpha"/>
<feOffset dy="3.26825"/>
<feGaussianBlur stdDeviation="11.112"/>
<feColorMatrix type="matrix" values="0 0 0 0 0 0 0 0 0 0 0 0 0 0 0 0 0 0 0.1 0"/>
<feBlend mode="normal" in2="BackgroundImageFix" result="effect1_dropShadow_5_18"/>
<feBlend mode="normal" in="SourceGraphic" in2="effect1_dropShadow_5_18" result="shape"/>
</filter>
<filter id="filter25_d_5_18" x="857.254" y="43.8163" width="347.813" height="314.743" filterUnits="userSpaceOnUse" color-interpolation-filters="sRGB">
<feFlood flood-opacity="0" result="BackgroundImageFix"/>
<feColorMatrix in="SourceAlpha" type="matrix" values="0 0 0 0 0 0 0 0 0 0 0 0 0 0 0 0 0 0 127 0" result="hardAlpha"/>
<feOffset dy="3.26824"/>
<feGaussianBlur stdDeviation="11.112"/>
<feColorMatrix type="matrix" values="0 0 0 0 0 0 0 0 0 0 0 0 0 0 0 0 0 0 0.1 0"/>
<feBlend mode="normal" in2="BackgroundImageFix" result="effect1_dropShadow_5_18"/>
<feBlend mode="normal" in="SourceGraphic" in2="effect1_dropShadow_5_18" result="shape"/>
</filter>
<filter id="filter26_d_5_18" x="857.254" y="43.8162" width="347.813" height="314.743" filterUnits="userSpaceOnUse" color-interpolation-filters="sRGB">
<feFlood flood-opacity="0" result="BackgroundImageFix"/>
<feColorMatrix in="SourceAlpha" type="matrix" values="0 0 0 0 0 0 0 0 0 0 0 0 0 0 0 0 0 0 127 0" result="hardAlpha"/>
<feOffset dy="3.26825"/>
<feGaussianBlur stdDeviation="11.112"/>
<feColorMatrix type="matrix" values="0 0 0 0 0 0 0 0 0 0 0 0 0 0 0 0 0 0 0.1 0"/>
<feBlend mode="normal" in2="BackgroundImageFix" result="effect1_dropShadow_5_18"/>
<feBlend mode="normal" in="SourceGraphic" in2="effect1_dropShadow_5_18" result="shape"/>
</filter>
<filter id="filter27_d_5_18" x="1087.25" y="40.8163" width="347.813" height="314.743" filterUnits="userSpaceOnUse" color-interpolation-filters="sRGB">
<feFlood flood-opacity="0" result="BackgroundImageFix"/>
<feColorMatrix in="SourceAlpha" type="matrix" values="0 0 0 0 0 0 0 0 0 0 0 0 0 0 0 0 0 0 127 0" result="hardAlpha"/>
<feOffset dy="3.26824"/>
<feGaussianBlur stdDeviation="11.112"/>
<feColorMatrix type="matrix" values="0 0 0 0 0 0 0 0 0 0 0 0 0 0 0 0 0 0 0.1 0"/>
<feBlend mode="normal" in2="BackgroundImageFix" result="effect1_dropShadow_5_18"/>
<feBlend mode="normal" in="SourceGraphic" in2="effect1_dropShadow_5_18" result="shape"/>
</filter>
<filter id="filter28_d_5_18" x="1087.25" y="40.8162" width="347.813" height="314.743" filterUnits="userSpaceOnUse" color-interpolation-filters="sRGB">
<feFlood flood-opacity="0" result="BackgroundImageFix"/>
<feColorMatrix in="SourceAlpha" type="matrix" values="0 0 0 0 0 0 0 0 0 0 0 0 0 0 0 0 0 0 127 0" result="hardAlpha"/>
<feOffset dy="3.26825"/>
<feGaussianBlur stdDeviation="11.112"/>
<feColorMatrix type="matrix" values="0 0 0 0 0 0 0 0 0 0 0 0 0 0 0 0 0 0 0.1 0"/>
<feBlend mode="normal" in2="BackgroundImageFix" result="effect1_dropShadow_5_18"/>
<feBlend mode="normal" in="SourceGraphic" in2="effect1_dropShadow_5_18" result="shape"/>
</filter>
<filter id="filter29_d_5_18" x="1317.25" y="37.8163" width="347.813" height="314.743" filterUnits="userSpaceOnUse" color-interpolation-filters="sRGB">
<feFlood flood-opacity="0" result="BackgroundImageFix"/>
<feColorMatrix in="SourceAlpha" type="matrix" values="0 0 0 0 0 0 0 0 0 0 0 0 0 0 0 0 0 0 127 0" result="hardAlpha"/>
<feOffset dy="3.26824"/>
<feGaussianBlur stdDeviation="11.112"/>
<feColorMatrix type="matrix" values="0 0 0 0 0 0 0 0 0 0 0 0 0 0 0 0 0 0 0.1 0"/>
<feBlend mode="normal" in2="BackgroundImageFix" result="effect1_dropShadow_5_18"/>
<feBlend mode="normal" in="SourceGraphic" in2="effect1_dropShadow_5_18" result="shape"/>
</filter>
<filter id="filter30_d_5_18" x="1317.25" y="37.8162" width="347.813" height="314.743" filterUnits="userSpaceOnUse" color-interpolation-filters="sRGB">
<feFlood flood-opacity="0" result="BackgroundImageFix"/>
<feColorMatrix in="SourceAlpha" type="matrix" values="0 0 0 0 0 0 0 0 0 0 0 0 0 0 0 0 0 0 127 0" result="hardAlpha"/>
<feOffset dy="3.26825"/>
<feGaussianBlur stdDeviation="11.112"/>
<feColorMatrix type="matrix" values="0 0 0 0 0 0 0 0 0 0 0 0 0 0 0 0 0 0 0.1 0"/>
<feBlend mode="normal" in2="BackgroundImageFix" result="effect1_dropShadow_5_18"/>
<feBlend mode="normal" in="SourceGraphic" in2="effect1_dropShadow_5_18" result="shape"/>
</filter>
<clipPath id="clip0_5_18">
<rect width="1440" height="1024" fill="white"/>
</clipPath>
<clipPath id="clip1_5_18">
<rect width="183.022" height="257.538" fill="white" transform="translate(1070.83 581) rotate(15)"/>
</clipPath>
<clipPath id="clip2_5_18">
<rect width="183.022" height="257.538" fill="white" transform="translate(1082.83 605) rotate(15)"/>
</clipPath>
<clipPath id="clip3_5_18">
<rect width="183.022" height="257.538" fill="white" transform="translate(184.825 4.00009) rotate(15)"/>
</clipPath>
<clipPath id="clip4_5_18">
<rect width="183.022" height="257.538" fill="white" transform="translate(359.825 635) rotate(15)"/>
</clipPath>
<clipPath id="clip5_5_18">
<rect width="183.022" height="257.538" fill="white" transform="translate(170.825 682) rotate(15)"/>
</clipPath>
<clipPath id="clip6_5_18">
<rect width="183.022" height="257.538" fill="white" transform="translate(239.266 860.545) rotate(-116.711)"/>
</clipPath>
<clipPath id="clip7_5_18">
<rect width="183.022" height="257.538" fill="white" transform="translate(148.266 286.545) rotate(-116.711)"/>
</clipPath>
<clipPath id="clip8_5_18">
<rect width="183.022" height="257.538" fill="white" transform="translate(288.266 354.545) rotate(-116.711)"/>
</clipPath>
<clipPath id="clip9_5_18">
<rect width="183.022" height="257.538" fill="white" transform="translate(497.266 343.545) rotate(-116.711)"/>
</clipPath>
<clipPath id="clip10_5_18">
<rect width="183.022" height="257.538" fill="white" transform="translate(727.266 340.545) rotate(-116.711)"/>
</clipPath>
<clipPath id="clip11_5_18">
<rect width="183.022" height="257.538" fill="white" transform="translate(957.266 337.545) rotate(-116.711)"/>
</clipPath>
<clipPath id="clip12_5_18">
<rect width="183.022" height="257.538" fill="white" transform="translate(1187.27 334.545) rotate(-116.711)"/>
</clipPath>
<clipPath id="clip13_5_18">
<rect width="183.022" height="257.538" fill="white" transform="translate(1417.27 331.545) rotate(-116.711)"/>
</clipPath>
</defs>
</svg>
