<svg width="181" height="235" viewBox="0 0 181 235" fill="none" xmlns="http://www.w3.org/2000/svg">
<g filter="url(#filter0_d_211_445)">
<rect x="23" y="19" width="135" height="190" rx="13.073" fill="#D74E30"/>
<rect x="23.3268" y="19.3268" width="134.346" height="189.346" rx="12.7462" stroke="#D2D2D2" stroke-width="0.653649"/>
</g>
<path fill-rule="evenodd" clip-rule="evenodd" d="M102.952 134.585C113.204 134.717 119.51 127.222 116.041 119.333C112.572 111.443 109.114 109.668 103.668 103.948C98.2202 98.2284 90.298 88.3339 90.3354 86C90.3755 88.3339 82.7796 98.2284 77.3313 103.948C71.8858 109.668 68.4302 111.443 64.9585 119.333C61.4895 127.222 67.7989 134.717 78.0481 134.585C85.0851 134.495 88.2519 129.882 89.5437 126.998V130.773C89.5437 130.773 87.297 144.388 71.4418 145.878H68.9143V148H112.088V145.878H109.558C93.7054 144.388 91.4561 130.773 91.4561 130.773V127.494C92.9779 130.381 96.3052 134.5 102.952 134.585Z" fill="#1A1919"/>
<defs>
<filter id="filter0_d_211_445" x="0.77593" y="0.0441756" width="179.448" height="234.448" filterUnits="userSpaceOnUse" color-interpolation-filters="sRGB">
<feFlood flood-opacity="0" result="BackgroundImageFix"/>
<feColorMatrix in="SourceAlpha" type="matrix" values="0 0 0 0 0 0 0 0 0 0 0 0 0 0 0 0 0 0 127 0" result="hardAlpha"/>
<feOffset dy="3.26825"/>
<feGaussianBlur stdDeviation="11.112"/>
<feColorMatrix type="matrix" values="0 0 0 0 0 0 0 0 0 0 0 0 0 0 0 0 0 0 0.1 0"/>
<feBlend mode="normal" in2="BackgroundImageFix" result="effect1_dropShadow_211_445"/>
<feBlend mode="normal" in="SourceGraphic" in2="effect1_dropShadow_211_445" result="shape"/>
</filter>
</defs>
</svg>
