<svg width="27" height="32" viewBox="0 0 27 32" fill="none" xmlns="http://www.w3.org/2000/svg">
<path fill-rule="evenodd" clip-rule="evenodd" d="M19.8433 25.0763C25.0659 25.1442 28.2788 21.2758 26.5116 17.2039C24.7444 13.1319 22.9826 12.2157 20.2084 9.2636C17.4329 6.31145 13.3971 1.20458 13.4161 0C13.4366 1.20458 9.56694 6.31145 6.79143 9.2636C4.01728 12.2157 2.25687 13.1319 0.488283 17.2039C-1.27894 21.2758 1.93531 25.1442 7.1566 25.0763C10.7415 25.0297 12.3547 22.6488 13.0128 21.1603V23.1084C13.0128 23.1084 11.8683 30.1357 3.7911 30.905H2.50349V32H24.4978V30.905H23.2088C15.133 30.1357 13.9871 23.1084 13.9871 23.1084V21.4161C14.7623 22.9062 16.4574 25.0323 19.8433 25.0763Z" fill="#1A1919"/>
</svg>
